STARTFONT 2.1
FONT -FontForge-Monofett-Book-R-Normal--16-160-72-72-P-86-ISO10646-1
SIZE 16 72 72
FONTBOUNDINGBOX 10 18 0 -2
COMMENT "Generated by fontforge, http://fontforge.sourceforge.net"
COMMENT "Copyright (c) 2011 by vernon adams. All rights reserved."
STARTPROPERTIES 40
FOUNDRY "FontForge"
FAMILY_NAME "Monofett"
WEIGHT_NAME "Book"
SLANT "R"
SETWIDTH_NAME "Normal"
ADD_STYLE_NAME ""
PIXEL_SIZE 16
POINT_SIZE 160
RESOLUTION_X 72
RESOLUTION_Y 72
SPACING "P"
AVERAGE_WIDTH 86
CHARSET_REGISTRY "ISO10646"
CHARSET_ENCODING "1"
FONTNAME_REGISTRY ""
CHARSET_COLLECTIONS "ISO8859-2 ISO8859-9 ISO8859-4 ISO10646-1"
FONT_NAME "Monofett"
FACE_NAME "Monofett"
COPYRIGHT "Copyright (c) 2011 by vernon adams. All rights reserved."
FONT_VERSION "1.000"
FONT_ASCENT 13
FONT_DESCENT 3
UNDERLINE_POSITION -2
UNDERLINE_THICKNESS 1
X_HEIGHT 10
CAP_HEIGHT 10
RAW_ASCENT 799
RAW_DESCENT 200
NORM_SPACE 2
RELATIVE_WEIGHT 40
RELATIVE_SETWIDTH 50
SUPERSCRIPT_X 0
SUPERSCRIPT_Y 7
SUPERSCRIPT_SIZE 10
SUBSCRIPT_X 0
SUBSCRIPT_Y 2
SUBSCRIPT_SIZE 10
FIGURE_WIDTH 9
AVG_LOWERCASE_WIDTH 90
AVG_UPPERCASE_WIDTH 90
ENDPROPERTIES
CHARS 409
STARTCHAR uni000D
ENCODING 13
SWIDTH 144 0
DWIDTH 2 0
BBX 1 1 0 0
BITMAP
00
ENDCHAR
STARTCHAR space
ENCODING 32
SWIDTH 144 0
DWIDTH 2 0
BBX 1 1 0 0
BITMAP
00
ENDCHAR
STARTCHAR exclam
ENCODING 33
SWIDTH 424 0
DWIDTH 7 0
BBX 7 11 0 0
BITMAP
38
6C
EE
EE
EE
EE
FE
EE
FE
FC
78
ENDCHAR
STARTCHAR quotedbl
ENCODING 34
SWIDTH 424 0
DWIDTH 7 0
BBX 7 11 0 0
BITMAP
38
7C
FE
FE
FE
FE
FE
FE
FE
FC
78
ENDCHAR
STARTCHAR numbersign
ENCODING 35
SWIDTH 482 0
DWIDTH 8 0
BBX 8 11 0 0
BITMAP
3C
7E
EF
C3
F7
C7
F7
FF
FF
FE
7C
ENDCHAR
STARTCHAR dollar
ENCODING 36
SWIDTH 578 0
DWIDTH 9 0
BBX 9 11 0 0
BITMAP
3E00
7780
ED80
D780
E180
F580
F580
F780
FF80
FF80
7F00
ENDCHAR
STARTCHAR percent
ENCODING 37
SWIDTH 578 0
DWIDTH 9 0
BBX 9 11 0 0
BITMAP
3E00
5B80
AB80
CF80
F780
F680
FC80
FF80
FF80
FF80
7F00
ENDCHAR
STARTCHAR ampersand
ENCODING 38
SWIDTH 578 0
DWIDTH 9 0
BBX 9 11 0 0
BITMAP
3E00
6380
EF80
ED80
F180
ED80
ED80
FF80
FF80
FF80
7F00
ENDCHAR
STARTCHAR quotesingle
ENCODING 39
SWIDTH 424 0
DWIDTH 7 0
BBX 7 11 0 0
BITMAP
38
6C
EE
FE
FE
FE
FE
FE
FE
FC
78
ENDCHAR
STARTCHAR parenleft
ENCODING 40
SWIDTH 483 0
DWIDTH 8 0
BBX 8 11 0 0
BITMAP
3C
66
FF
FF
FF
FF
FF
EF
FF
FE
7C
ENDCHAR
STARTCHAR parenright
ENCODING 41
SWIDTH 483 0
DWIDTH 8 0
BBX 8 11 0 0
BITMAP
3C
66
F7
F7
F7
F7
F7
F7
FF
FE
7C
ENDCHAR
STARTCHAR asterisk
ENCODING 42
SWIDTH 428 0
DWIDTH 7 0
BBX 7 11 0 0
BITMAP
38
54
EA
EE
F6
FE
FE
FE
FE
FC
78
ENDCHAR
STARTCHAR plus
ENCODING 43
SWIDTH 428 0
DWIDTH 7 0
BBX 7 11 0 0
BITMAP
38
6C
EE
EE
EE
FE
FE
FE
FE
FC
78
ENDCHAR
STARTCHAR comma
ENCODING 44
SWIDTH 428 0
DWIDTH 7 0
BBX 7 11 0 0
BITMAP
38
7C
FE
FE
FE
FE
EE
EE
FE
FC
78
ENDCHAR
STARTCHAR hyphen
ENCODING 45
SWIDTH 428 0
DWIDTH 7 0
BBX 7 11 0 0
BITMAP
38
7C
FE
C6
FE
FE
FE
FE
FE
FC
78
ENDCHAR
STARTCHAR period
ENCODING 46
SWIDTH 428 0
DWIDTH 7 0
BBX 7 11 0 0
BITMAP
38
7C
FE
FE
FE
FE
EE
FE
FE
FC
78
ENDCHAR
STARTCHAR slash
ENCODING 47
SWIDTH 428 0
DWIDTH 7 0
BBX 7 11 0 0
BITMAP
38
7C
EE
EE
EE
EE
EE
DE
FE
FC
78
ENDCHAR
STARTCHAR zero
ENCODING 48
SWIDTH 578 0
DWIDTH 9 0
BBX 9 11 0 0
BITMAP
3E00
6180
FF80
FF80
FF80
FF80
FD80
FF80
FF80
FF80
7F00
ENDCHAR
STARTCHAR one
ENCODING 49
SWIDTH 578 0
DWIDTH 9 0
BBX 9 11 0 0
BITMAP
3E00
6780
F780
F780
F780
F780
F780
FF80
FF80
FF80
7F00
ENDCHAR
STARTCHAR two
ENCODING 50
SWIDTH 578 0
DWIDTH 9 0
BBX 9 11 0 0
BITMAP
3E00
6180
FD80
FD80
E180
FF80
FF80
FF80
FF80
FF80
7F00
ENDCHAR
STARTCHAR three
ENCODING 51
SWIDTH 578 0
DWIDTH 9 0
BBX 9 11 0 0
BITMAP
3E00
4180
FD80
FD80
F180
FD80
DD80
FF80
FF80
FF80
7F00
ENDCHAR
STARTCHAR four
ENCODING 52
SWIDTH 578 0
DWIDTH 9 0
BBX 9 11 0 0
BITMAP
3E00
6F80
EF80
EF80
EF80
E080
FF80
FF80
FF80
FF80
7F00
ENDCHAR
STARTCHAR five
ENCODING 53
SWIDTH 578 0
DWIDTH 9 0
BBX 9 11 0 0
BITMAP
3E00
6180
FF80
FF80
FD80
FD80
ED80
FF80
FF80
FF80
7F00
ENDCHAR
STARTCHAR six
ENCODING 54
SWIDTH 578 0
DWIDTH 9 0
BBX 9 11 0 0
BITMAP
3E00
6180
FF80
F380
FF80
FE80
EF80
FF80
FF80
FF80
7F00
ENDCHAR
STARTCHAR seven
ENCODING 55
SWIDTH 578 0
DWIDTH 9 0
BBX 9 11 0 0
BITMAP
3E00
6180
FF80
FB80
FB80
F780
F780
FF80
FF80
FF80
7F00
ENDCHAR
STARTCHAR eight
ENCODING 56
SWIDTH 578 0
DWIDTH 9 0
BBX 9 11 0 0
BITMAP
3E00
6180
DF80
DD80
E180
DF80
FD80
FF80
FF80
FF80
7F00
ENDCHAR
STARTCHAR nine
ENCODING 57
SWIDTH 578 0
DWIDTH 9 0
BBX 9 11 0 0
BITMAP
3E00
6180
DD80
DD80
E180
FD80
FD80
FF80
FF80
FF80
7F00
ENDCHAR
STARTCHAR colon
ENCODING 58
SWIDTH 428 0
DWIDTH 7 0
BBX 7 11 0 0
BITMAP
38
7C
FE
FE
EE
FE
EE
FE
FE
FC
78
ENDCHAR
STARTCHAR semicolon
ENCODING 59
SWIDTH 428 0
DWIDTH 7 0
BBX 7 11 0 0
BITMAP
38
7C
FE
FE
EE
FE
EE
EE
FE
FC
78
ENDCHAR
STARTCHAR less
ENCODING 60
SWIDTH 482 0
DWIDTH 8 0
BBX 8 11 0 1
BITMAP
7C
FE
FF
F7
EF
DF
FF
FF
F7
FE
7E
ENDCHAR
STARTCHAR equal
ENCODING 61
SWIDTH 482 0
DWIDTH 8 0
BBX 8 11 0 1
BITMAP
7C
FE
FF
FF
C3
FF
C3
FF
FF
FE
7E
ENDCHAR
STARTCHAR greater
ENCODING 62
SWIDTH 482 0
DWIDTH 8 0
BBX 8 11 0 1
BITMAP
7C
FE
FF
EF
F7
FF
F7
FF
FF
FE
7E
ENDCHAR
STARTCHAR question
ENCODING 63
SWIDTH 578 0
DWIDTH 9 0
BBX 9 11 0 0
BITMAP
3E00
6180
FF80
FF80
F980
FF80
FF80
FF80
FF80
FF80
7F00
ENDCHAR
STARTCHAR at
ENCODING 64
SWIDTH 578 0
DWIDTH 9 0
BBX 9 11 0 0
BITMAP
3E00
4180
FE80
BE80
B380
AF80
F680
DF80
FF80
FF80
7F00
ENDCHAR
STARTCHAR A
ENCODING 65
SWIDTH 578 0
DWIDTH 9 0
BBX 9 11 0 0
BITMAP
3E00
6180
ED80
ED80
E180
FD80
DD80
FF80
FF80
FF80
7F00
ENDCHAR
STARTCHAR B
ENCODING 66
SWIDTH 578 0
DWIDTH 9 0
BBX 9 11 0 0
BITMAP
3E00
4180
DD80
DD80
C380
DD80
DD80
FF80
FF80
FF80
7F00
ENDCHAR
STARTCHAR C
ENCODING 67
SWIDTH 578 0
DWIDTH 9 0
BBX 9 11 0 0
BITMAP
3E00
6180
DF80
DF80
DF80
DF80
DF80
FF80
FF80
FF80
7F00
ENDCHAR
STARTCHAR D
ENCODING 68
SWIDTH 578 0
DWIDTH 9 0
BBX 9 11 0 0
BITMAP
3E00
6180
FF80
FF80
FF80
FF80
FF80
FF80
FF80
FF80
7F00
ENDCHAR
STARTCHAR E
ENCODING 69
SWIDTH 578 0
DWIDTH 9 0
BBX 9 11 0 0
BITMAP
3E00
6180
EF80
EF80
E180
EF80
EF80
FF80
FF80
FF80
7F00
ENDCHAR
STARTCHAR F
ENCODING 70
SWIDTH 578 0
DWIDTH 9 0
BBX 9 11 0 0
BITMAP
3E00
6180
EF80
EF80
EF80
EF80
EF80
FF80
FF80
FF80
7F00
ENDCHAR
STARTCHAR G
ENCODING 71
SWIDTH 578 0
DWIDTH 9 0
BBX 9 11 0 0
BITMAP
3E00
6180
EF80
EF80
E980
EF80
EF80
FF80
FF80
FF80
7F00
ENDCHAR
STARTCHAR H
ENCODING 72
SWIDTH 578 0
DWIDTH 9 0
BBX 9 11 0 0
BITMAP
3E00
7F80
FF80
FF80
E180
FF80
FF80
FF80
FF80
FF80
7F00
ENDCHAR
STARTCHAR I
ENCODING 73
SWIDTH 578 0
DWIDTH 9 0
BBX 9 11 0 0
BITMAP
3E00
6180
FF80
FF80
FF80
FF80
FF80
FF80
FF80
FF80
7F00
ENDCHAR
STARTCHAR J
ENCODING 74
SWIDTH 578 0
DWIDTH 9 0
BBX 9 11 0 0
BITMAP
3E00
7B80
FB80
FB80
FB80
FB80
FB80
FF80
FF80
FF80
7F00
ENDCHAR
STARTCHAR K
ENCODING 75
SWIDTH 578 0
DWIDTH 9 0
BBX 9 11 0 0
BITMAP
3F00
6C80
E980
EB80
E780
EB80
ED80
FF80
FF80
FF80
7F00
ENDCHAR
STARTCHAR L
ENCODING 76
SWIDTH 578 0
DWIDTH 9 0
BBX 9 11 0 0
BITMAP
3E00
7F80
FF80
FF80
FF80
FF80
FF80
FF80
FF80
FF80
7F00
ENDCHAR
STARTCHAR M
ENCODING 77
SWIDTH 578 0
DWIDTH 9 0
BBX 9 11 0 0
BITMAP
3E00
4980
D680
D680
D680
DE80
DE80
FF80
FF80
FF80
7F00
ENDCHAR
STARTCHAR N
ENCODING 78
SWIDTH 578 0
DWIDTH 9 0
BBX 9 11 0 0
BITMAP
3E00
6180
FD80
FD80
FD80
FD80
FD80
FF80
FF80
FF80
7F00
ENDCHAR
STARTCHAR O
ENCODING 79
SWIDTH 578 0
DWIDTH 9 0
BBX 9 11 0 0
BITMAP
3E00
6180
FF80
FF80
FF80
FF80
FF80
FF80
FF80
FF80
7F00
ENDCHAR
STARTCHAR P
ENCODING 80
SWIDTH 578 0
DWIDTH 9 0
BBX 9 11 0 0
BITMAP
3E00
6180
ED80
ED80
E180
EF80
EF80
FF80
FF80
FF80
7F00
ENDCHAR
STARTCHAR Q
ENCODING 81
SWIDTH 578 0
DWIDTH 9 0
BBX 9 11 0 0
BITMAP
3E00
6180
FF80
FF80
FF80
FF80
FB80
FB80
FF80
FF80
7F00
ENDCHAR
STARTCHAR R
ENCODING 82
SWIDTH 578 0
DWIDTH 9 0
BBX 9 11 0 0
BITMAP
3E00
6180
ED80
ED80
E380
ED80
ED80
FF80
FF80
FF80
7F00
ENDCHAR
STARTCHAR S
ENCODING 83
SWIDTH 578 0
DWIDTH 9 0
BBX 9 11 0 0
BITMAP
3E00
6180
EF80
EF80
E180
FD80
FD80
FF80
FF80
FF80
7F00
ENDCHAR
STARTCHAR T
ENCODING 84
SWIDTH 578 0
DWIDTH 9 0
BBX 9 11 0 0
BITMAP
3E00
6180
FF80
FF80
FF80
FF80
FF80
FF80
FF80
FF80
7F00
ENDCHAR
STARTCHAR U
ENCODING 85
SWIDTH 578 0
DWIDTH 9 0
BBX 9 11 0 0
BITMAP
3E00
7F80
FF80
FF80
FF80
FF80
FD80
FF80
FF80
FF80
7F00
ENDCHAR
STARTCHAR V
ENCODING 86
SWIDTH 578 0
DWIDTH 9 0
BBX 9 11 0 0
BITMAP
3E00
7D80
ED80
ED80
ED80
FB80
FB80
FF80
FF80
FF80
7F00
ENDCHAR
STARTCHAR W
ENCODING 87
SWIDTH 578 0
DWIDTH 9 0
BBX 9 11 0 0
BITMAP
3F00
5680
D680
DA80
DA80
DB80
DB80
FF80
FF80
FF80
7F00
ENDCHAR
STARTCHAR X
ENCODING 88
SWIDTH 578 0
DWIDTH 9 0
BBX 9 11 0 0
BITMAP
3E00
6D80
ED80
F780
F380
F780
ED80
FF80
FF80
FF80
7F00
ENDCHAR
STARTCHAR Y
ENCODING 89
SWIDTH 578 0
DWIDTH 9 0
BBX 9 11 0 0
BITMAP
3E00
6D80
ED80
FB80
FB80
FF80
FF80
FF80
FF80
FF80
7F00
ENDCHAR
STARTCHAR Z
ENCODING 90
SWIDTH 578 0
DWIDTH 9 0
BBX 9 11 0 0
BITMAP
3E00
6180
FF80
FB80
F780
F780
EF80
FF80
FF80
FF80
7F00
ENDCHAR
STARTCHAR bracketleft
ENCODING 91
SWIDTH 484 0
DWIDTH 8 0
BBX 8 11 0 0
BITMAP
3C
66
EF
EF
EF
EF
EF
E7
FF
FE
7C
ENDCHAR
STARTCHAR backslash
ENCODING 92
SWIDTH 516 0
DWIDTH 8 0
BBX 8 11 0 0
BITMAP
3C
6F
FF
F7
F7
F7
F7
FF
FF
FF
7E
ENDCHAR
STARTCHAR bracketright
ENCODING 93
SWIDTH 484 0
DWIDTH 8 0
BBX 8 11 0 0
BITMAP
3C
6E
FF
FF
FF
FF
FF
EF
FF
FE
7C
ENDCHAR
STARTCHAR asciicircum
ENCODING 94
SWIDTH 355 0
DWIDTH 6 0
BBX 6 6 0 4
BITMAP
20
78
58
E8
FC
FC
ENDCHAR
STARTCHAR underscore
ENCODING 95
SWIDTH 428 0
DWIDTH 7 0
BBX 7 11 0 0
BITMAP
38
7C
FE
FE
FE
FE
FE
C6
FE
FC
78
ENDCHAR
STARTCHAR grave
ENCODING 96
SWIDTH 308 0
DWIDTH 5 0
BBX 5 5 0 0
BITMAP
F0
D0
D8
78
38
ENDCHAR
STARTCHAR a
ENCODING 97
SWIDTH 578 0
DWIDTH 9 0
BBX 9 11 0 0
BITMAP
3E00
6180
FD80
FD80
E180
DD80
DD80
FF80
FF80
FF80
7F00
ENDCHAR
STARTCHAR b
ENCODING 98
SWIDTH 578 0
DWIDTH 9 0
BBX 9 11 0 0
BITMAP
3E00
4180
DD80
DD80
C380
DD80
DD80
FF80
FF80
FF80
7F00
ENDCHAR
STARTCHAR c
ENCODING 99
SWIDTH 578 0
DWIDTH 9 0
BBX 9 11 0 0
BITMAP
3E00
6180
DF80
DF80
DF80
DF80
DF80
FF80
FF80
FF80
7F00
ENDCHAR
STARTCHAR d
ENCODING 100
SWIDTH 578 0
DWIDTH 9 0
BBX 9 11 0 0
BITMAP
3E00
6180
FF80
FF80
FF80
FF80
FF80
FF80
FF80
FF80
7F00
ENDCHAR
STARTCHAR e
ENCODING 101
SWIDTH 578 0
DWIDTH 9 0
BBX 9 11 0 0
BITMAP
3E00
6180
DD80
C180
DF80
DF80
C180
FF80
FF80
FF80
7F00
ENDCHAR
STARTCHAR f
ENCODING 102
SWIDTH 578 0
DWIDTH 9 0
BBX 9 11 0 0
BITMAP
3E00
6180
EF80
EF80
EF80
EF80
EF80
FF80
FF80
FF80
7F00
ENDCHAR
STARTCHAR g
ENCODING 103
SWIDTH 578 0
DWIDTH 9 0
BBX 9 11 0 0
BITMAP
3E00
6180
EF80
EF80
E980
EF80
EF80
FF80
FF80
FF80
7F00
ENDCHAR
STARTCHAR h
ENCODING 104
SWIDTH 578 0
DWIDTH 9 0
BBX 9 11 0 0
BITMAP
3E00
7F80
FF80
FF80
E180
FF80
FF80
FF80
FF80
FF80
7F00
ENDCHAR
STARTCHAR i
ENCODING 105
SWIDTH 578 0
DWIDTH 9 0
BBX 9 11 0 0
BITMAP
3E00
6180
FF80
FF80
FF80
FF80
FF80
FF80
FF80
FF80
7F00
ENDCHAR
STARTCHAR j
ENCODING 106
SWIDTH 578 0
DWIDTH 9 0
BBX 9 11 0 0
BITMAP
3E00
7B80
FB80
FB80
FB80
FB80
FB80
FF80
FF80
FF80
7F00
ENDCHAR
STARTCHAR k
ENCODING 107
SWIDTH 578 0
DWIDTH 9 0
BBX 9 11 0 0
BITMAP
3F00
6C80
E980
EB80
E780
EB80
ED80
FF80
FF80
FF80
7F00
ENDCHAR
STARTCHAR l
ENCODING 108
SWIDTH 578 0
DWIDTH 9 0
BBX 9 11 0 0
BITMAP
3E00
7F80
FF80
FF80
FF80
FF80
FF80
FF80
FF80
FF80
7F00
ENDCHAR
STARTCHAR m
ENCODING 109
SWIDTH 578 0
DWIDTH 9 0
BBX 9 11 0 0
BITMAP
3E00
4980
D680
D680
D680
DE80
DE80
FF80
FF80
FF80
7F00
ENDCHAR
STARTCHAR n
ENCODING 110
SWIDTH 578 0
DWIDTH 9 0
BBX 9 11 0 0
BITMAP
3E00
6180
FD80
FD80
FD80
FD80
FD80
FF80
FF80
FF80
7F00
ENDCHAR
STARTCHAR o
ENCODING 111
SWIDTH 578 0
DWIDTH 9 0
BBX 9 11 0 0
BITMAP
3E00
6180
FF80
FF80
FF80
FF80
FF80
FF80
FF80
FF80
7F00
ENDCHAR
STARTCHAR p
ENCODING 112
SWIDTH 578 0
DWIDTH 9 0
BBX 9 11 0 0
BITMAP
3E00
6180
ED80
ED80
E180
EF80
EF80
FF80
FF80
FF80
7F00
ENDCHAR
STARTCHAR q
ENCODING 113
SWIDTH 578 0
DWIDTH 9 0
BBX 9 11 0 0
BITMAP
3E00
6180
FF80
FF80
FF80
FF80
FB80
FB80
FF80
FF80
7F00
ENDCHAR
STARTCHAR r
ENCODING 114
SWIDTH 578 0
DWIDTH 9 0
BBX 9 11 0 0
BITMAP
3E00
6180
ED80
ED80
E380
ED80
ED80
FF80
FF80
FF80
7F00
ENDCHAR
STARTCHAR s
ENCODING 115
SWIDTH 578 0
DWIDTH 9 0
BBX 9 11 0 0
BITMAP
3E00
6180
EF80
EF80
E180
FD80
FD80
FF80
FF80
FF80
7F00
ENDCHAR
STARTCHAR t
ENCODING 116
SWIDTH 578 0
DWIDTH 9 0
BBX 9 11 0 0
BITMAP
3E00
6180
FF80
FF80
FF80
FF80
FF80
FF80
FF80
FF80
7F00
ENDCHAR
STARTCHAR u
ENCODING 117
SWIDTH 578 0
DWIDTH 9 0
BBX 9 11 0 0
BITMAP
3E00
7F80
FF80
FF80
FF80
FF80
FD80
FF80
FF80
FF80
7F00
ENDCHAR
STARTCHAR v
ENCODING 118
SWIDTH 578 0
DWIDTH 9 0
BBX 9 11 0 0
BITMAP
3E00
7D80
ED80
ED80
ED80
FB80
FB80
FF80
FF80
FF80
7F00
ENDCHAR
STARTCHAR w
ENCODING 119
SWIDTH 578 0
DWIDTH 9 0
BBX 9 11 0 0
BITMAP
3F00
5680
D680
DA80
DA80
DB80
DB80
FF80
FF80
FF80
7F00
ENDCHAR
STARTCHAR x
ENCODING 120
SWIDTH 578 0
DWIDTH 9 0
BBX 9 11 0 0
BITMAP
3E00
6D80
ED80
F780
F380
F780
ED80
FF80
FF80
FF80
7F00
ENDCHAR
STARTCHAR y
ENCODING 121
SWIDTH 578 0
DWIDTH 9 0
BBX 9 11 0 0
BITMAP
3E00
6D80
ED80
FB80
FB80
FF80
FF80
FF80
FF80
FF80
7F00
ENDCHAR
STARTCHAR z
ENCODING 122
SWIDTH 578 0
DWIDTH 9 0
BBX 9 11 0 0
BITMAP
3E00
6180
FF80
FB80
F780
F780
EF80
FF80
FF80
FF80
7F00
ENDCHAR
STARTCHAR braceleft
ENCODING 123
SWIDTH 484 0
DWIDTH 8 0
BBX 8 11 0 0
BITMAP
3C
66
EF
EF
9F
EF
EF
E7
FF
FE
7C
ENDCHAR
STARTCHAR bar
ENCODING 124
SWIDTH 484 0
DWIDTH 8 0
BBX 8 11 0 0
BITMAP
3C
7E
FF
FF
FF
FF
FF
FF
FF
FE
7C
ENDCHAR
STARTCHAR braceright
ENCODING 125
SWIDTH 484 0
DWIDTH 8 0
BBX 8 11 0 0
BITMAP
3C
66
F7
F7
F3
F7
F7
E7
FF
FE
7C
ENDCHAR
STARTCHAR asciitilde
ENCODING 126
SWIDTH 578 0
DWIDTH 9 0
BBX 9 11 0 0
BITMAP
3E00
7F80
FF80
C180
FF80
FF80
FF80
FF80
FF80
FF80
7F00
ENDCHAR
STARTCHAR uni00A0
ENCODING 160
SWIDTH 151 0
DWIDTH 2 0
BBX 1 1 0 0
BITMAP
00
ENDCHAR
STARTCHAR exclamdown
ENCODING 161
SWIDTH 424 0
DWIDTH 7 0
BBX 7 11 0 0
BITMAP
38
6C
FE
EE
EE
EE
EE
EE
FE
FC
78
ENDCHAR
STARTCHAR cent
ENCODING 162
SWIDTH 578 0
DWIDTH 9 0
BBX 9 11 0 0
BITMAP
3E00
7F80
E380
EF80
EF80
EF80
E380
FF80
FF80
FF80
7F00
ENDCHAR
STARTCHAR sterling
ENCODING 163
SWIDTH 578 0
DWIDTH 9 0
BBX 9 11 0 0
BITMAP
3E00
7380
ED80
EF80
E380
EF80
EF80
FF80
FF80
FF80
7F00
ENDCHAR
STARTCHAR currency
ENCODING 164
SWIDTH 578 0
DWIDTH 9 0
BBX 9 11 0 0
BITMAP
3E00
7D80
ED80
ED80
ED80
E180
FF80
FF80
FF80
FF80
7F00
ENDCHAR
STARTCHAR yen
ENCODING 165
SWIDTH 578 0
DWIDTH 9 0
BBX 9 11 0 0
BITMAP
3E00
6D80
EF80
EB80
FF80
E380
F780
FF80
FF80
FF80
7F00
ENDCHAR
STARTCHAR brokenbar
ENCODING 166
SWIDTH 484 0
DWIDTH 8 0
BBX 8 11 0 0
BITMAP
3C
6E
EF
EF
FF
EF
EF
FF
FF
FE
7C
ENDCHAR
STARTCHAR section
ENCODING 167
SWIDTH 578 0
DWIDTH 9 0
BBX 9 11 0 0
BITMAP
3E00
6180
FF80
E380
EF80
F380
FD80
FD80
FF80
FF80
7F00
ENDCHAR
STARTCHAR dieresis
ENCODING 168
SWIDTH 388 0
DWIDTH 6 0
BBX 6 5 0 0
BITMAP
30
FC
D4
FC
78
ENDCHAR
STARTCHAR copyright
ENCODING 169
SWIDTH 578 0
DWIDTH 9 0
BBX 9 11 0 0
BITMAP
3E00
6D80
D280
AF80
AF80
AF80
E280
DD80
FF80
FF80
7F00
ENDCHAR
STARTCHAR ordfeminine
ENCODING 170
SWIDTH 578 0
DWIDTH 9 0
BBX 9 11 0 0
BITMAP
3E00
6180
FD80
E180
ED80
ED80
FF80
FF80
FF80
FF80
7F00
ENDCHAR
STARTCHAR guillemotleft
ENCODING 171
SWIDTH 578 0
DWIDTH 9 0
BBX 9 11 0 0
BITMAP
3E00
7F80
FF80
EB80
D780
FF80
EB80
F580
FF80
FF80
7F00
ENDCHAR
STARTCHAR uni00AD
ENCODING 173
SWIDTH 428 0
DWIDTH 7 0
BBX 7 11 0 0
BITMAP
38
7C
FE
C6
FE
FE
FE
FE
FE
FC
78
ENDCHAR
STARTCHAR registered
ENCODING 174
SWIDTH 578 0
DWIDTH 9 0
BBX 9 11 0 0
BITMAP
3E00
6D80
F280
AF80
A380
AF80
EE80
DD80
FF80
FF80
7F00
ENDCHAR
STARTCHAR macron
ENCODING 175
SWIDTH 428 0
DWIDTH 7 0
BBX 7 5 0 0
BITMAP
38
FC
FE
FE
7C
ENDCHAR
STARTCHAR degree
ENCODING 176
SWIDTH 428 0
DWIDTH 7 0
BBX 7 11 0 0
BITMAP
38
44
D6
CE
FE
FE
FE
FE
FE
FC
78
ENDCHAR
STARTCHAR plusminus
ENCODING 177
SWIDTH 428 0
DWIDTH 7 0
BBX 7 11 0 0
BITMAP
38
6C
EE
EE
EE
D6
FE
FE
FE
FC
78
ENDCHAR
STARTCHAR uni00B2
ENCODING 178
SWIDTH 578 0
DWIDTH 9 0
BBX 9 11 0 0
BITMAP
3E00
6380
FF80
E780
EB80
FF80
FF80
FF80
FF80
FF80
7F00
ENDCHAR
STARTCHAR uni00B3
ENCODING 179
SWIDTH 578 0
DWIDTH 9 0
BBX 9 11 0 0
BITMAP
3E00
6180
FD80
FD80
E180
FF80
FF80
FF80
FF80
FF80
7F00
ENDCHAR
STARTCHAR acute
ENCODING 180
SWIDTH 308 0
DWIDTH 5 0
BBX 5 5 0 0
BITMAP
78
D8
D0
F0
E0
ENDCHAR
STARTCHAR uni00B5
ENCODING 181
SWIDTH 578 0
DWIDTH 9 0
BBX 9 11 0 0
BITMAP
3E00
5D80
DD80
DD80
DD80
DD80
DD80
DF80
FF80
FF80
7F00
ENDCHAR
STARTCHAR paragraph
ENCODING 182
SWIDTH 578 0
DWIDTH 9 0
BBX 9 11 0 0
BITMAP
3E00
6180
C580
E580
FD80
FD80
FD80
FF80
FF80
FF80
7F00
ENDCHAR
STARTCHAR periodcentered
ENCODING 183
SWIDTH 428 0
DWIDTH 7 0
BBX 7 11 0 0
BITMAP
38
7C
FE
EE
FE
FE
FE
FE
FE
FC
78
ENDCHAR
STARTCHAR cedilla
ENCODING 184
SWIDTH 101 0
DWIDTH 2 0
BBX 2 2 0 -2
BITMAP
C0
C0
ENDCHAR
STARTCHAR uni00B9
ENCODING 185
SWIDTH 578 0
DWIDTH 9 0
BBX 9 11 0 0
BITMAP
3E00
6780
F780
F780
F780
FF80
FF80
FF80
FF80
FF80
7F00
ENDCHAR
STARTCHAR ordmasculine
ENCODING 186
SWIDTH 578 0
DWIDTH 9 0
BBX 9 11 0 0
BITMAP
3E00
6180
ED80
ED80
ED80
ED80
FF80
FF80
FF80
FF80
7F00
ENDCHAR
STARTCHAR guillemotright
ENCODING 187
SWIDTH 578 0
DWIDTH 9 0
BBX 9 11 0 0
BITMAP
3E00
7F80
EF80
FB80
FD80
F780
EB80
FF80
FF80
FF80
7F00
ENDCHAR
STARTCHAR onequarter
ENCODING 188
SWIDTH 578 0
DWIDTH 9 0
BBX 9 11 0 0
BITMAP
3E00
D780
D780
D780
DA80
EA80
E880
FE80
FF80
FF80
7F00
ENDCHAR
STARTCHAR onehalf
ENCODING 189
SWIDTH 578 0
DWIDTH 9 0
BBX 9 11 0 0
BITMAP
3E00
D780
D780
D480
DF80
E880
EB80
FF80
FF80
FF80
7F00
ENDCHAR
STARTCHAR threequarters
ENCODING 190
SWIDTH 578 0
DWIDTH 9 0
BBX 9 11 0 0
BITMAP
3E00
D780
D780
D480
DF80
EC80
EB80
FF80
FF80
FF80
7F00
ENDCHAR
STARTCHAR questiondown
ENCODING 191
SWIDTH 578 0
DWIDTH 9 0
BBX 9 11 0 0
BITMAP
3E00
7F80
FB80
FB80
EF80
EF80
ED80
FF80
FF80
FF80
7F00
ENDCHAR
STARTCHAR Agrave
ENCODING 192
SWIDTH 578 0
DWIDTH 9 0
BBX 9 15 0 0
BITMAP
3C00
6C00
3400
1400
3E00
6180
ED80
ED80
E180
FD80
DD80
FF80
FF80
FF80
7F00
ENDCHAR
STARTCHAR Aacute
ENCODING 193
SWIDTH 578 0
DWIDTH 9 0
BBX 9 15 0 0
BITMAP
0F00
1B00
1E00
1600
3E00
6180
ED80
ED80
E180
FD80
DD80
FF80
FF80
FF80
7F00
ENDCHAR
STARTCHAR Acircumflex
ENCODING 194
SWIDTH 578 0
DWIDTH 9 0
BBX 9 16 0 0
BITMAP
0C00
1E00
1600
3A00
3F00
3E00
6180
ED80
ED80
E180
FD80
DD80
FF80
FF80
FF80
7F00
ENDCHAR
STARTCHAR Atilde
ENCODING 195
SWIDTH 578 0
DWIDTH 9 0
BBX 9 15 0 0
BITMAP
1E00
3F00
7F00
6300
3F00
6180
ED80
ED80
E180
FD80
DD80
FF80
FF80
FF80
7F00
ENDCHAR
STARTCHAR Adieresis
ENCODING 196
SWIDTH 578 0
DWIDTH 9 0
BBX 9 15 0 0
BITMAP
0C00
3F00
2B00
3F00
3E00
6180
ED80
ED80
E180
FD80
DD80
FF80
FF80
FF80
7F00
ENDCHAR
STARTCHAR Aring
ENCODING 197
SWIDTH 578 0
DWIDTH 9 0
BBX 9 15 0 0
BITMAP
1C00
3600
2F00
3300
3E00
6180
ED80
ED80
E180
FD80
DD80
FF80
FF80
FF80
7F00
ENDCHAR
STARTCHAR AE
ENCODING 198
SWIDTH 578 0
DWIDTH 9 0
BBX 9 11 0 0
BITMAP
3E00
6180
DF80
DF80
D980
DF80
DF80
FF80
FF80
FF80
7F00
ENDCHAR
STARTCHAR Ccedilla
ENCODING 199
SWIDTH 578 0
DWIDTH 9 0
BBX 9 11 0 0
BITMAP
3E00
6180
DF80
DF80
DF80
DF80
DF80
FF80
FF80
F780
7F00
ENDCHAR
STARTCHAR Egrave
ENCODING 200
SWIDTH 578 0
DWIDTH 9 0
BBX 9 15 0 0
BITMAP
3C00
3C00
3400
1E00
3E00
6180
EF80
EF80
E180
EF80
EF80
FF80
FF80
FF80
7F00
ENDCHAR
STARTCHAR Eacute
ENCODING 201
SWIDTH 578 0
DWIDTH 9 0
BBX 9 15 0 0
BITMAP
0F00
0B00
1B00
1E00
3E00
6180
EF80
EF80
E180
EF80
EF80
FF80
FF80
FF80
7F00
ENDCHAR
STARTCHAR Ecircumflex
ENCODING 202
SWIDTH 578 0
DWIDTH 9 0
BBX 9 16 0 0
BITMAP
0C00
1E00
1A00
3B00
3F00
3F00
6180
EF80
EF80
E180
EF80
EF80
FF80
FF80
FF80
7F00
ENDCHAR
STARTCHAR Edieresis
ENCODING 203
SWIDTH 578 0
DWIDTH 9 0
BBX 9 15 0 0
BITMAP
0C00
3F00
2B00
3F00
3E00
6180
EF80
EF80
E180
EF80
EF80
FF80
FF80
FF80
7F00
ENDCHAR
STARTCHAR Igrave
ENCODING 204
SWIDTH 578 0
DWIDTH 9 0
BBX 9 15 0 0
BITMAP
3C00
3400
3400
1E00
3E00
6180
FF80
FF80
FF80
FF80
FF80
FF80
FF80
FF80
7F00
ENDCHAR
STARTCHAR Iacute
ENCODING 205
SWIDTH 578 0
DWIDTH 9 0
BBX 9 15 0 0
BITMAP
0F00
0B00
1B00
1E00
3E00
6180
FF80
FF80
FF80
FF80
FF80
FF80
FF80
FF80
7F00
ENDCHAR
STARTCHAR Icircumflex
ENCODING 206
SWIDTH 578 0
DWIDTH 9 0
BBX 9 16 0 0
BITMAP
0C00
1E00
1600
3700
3F00
3F00
6180
FF80
FF80
FF80
FF80
FF80
FF80
FF80
FF80
7F00
ENDCHAR
STARTCHAR Idieresis
ENCODING 207
SWIDTH 578 0
DWIDTH 9 0
BBX 9 15 0 0
BITMAP
0C00
3F00
3500
3F00
3E00
6180
FF80
FF80
FF80
FF80
FF80
FF80
FF80
FF80
7F00
ENDCHAR
STARTCHAR Eth
ENCODING 208
SWIDTH 578 0
DWIDTH 9 0
BBX 9 11 0 0
BITMAP
3E00
6180
FF80
FF80
FF80
FF80
FF80
FF80
FF80
FF80
7F00
ENDCHAR
STARTCHAR Ntilde
ENCODING 209
SWIDTH 578 0
DWIDTH 9 0
BBX 9 15 0 0
BITMAP
3E00
3F00
7F00
6300
3F00
6180
FD80
FD80
FD80
FD80
FD80
FF80
FF80
FF80
7F00
ENDCHAR
STARTCHAR Ograve
ENCODING 210
SWIDTH 578 0
DWIDTH 9 0
BBX 9 15 0 0
BITMAP
3C00
3C00
3400
1600
3E00
6180
FF80
FF80
FF80
FF80
FF80
FF80
FF80
FF80
7F00
ENDCHAR
STARTCHAR Oacute
ENCODING 211
SWIDTH 578 0
DWIDTH 9 0
BBX 9 15 0 0
BITMAP
0F00
1B00
1A00
1E00
3E00
6180
FF80
FF80
FF80
FF80
FF80
FF80
FF80
FF80
7F00
ENDCHAR
STARTCHAR Ocircumflex
ENCODING 212
SWIDTH 578 0
DWIDTH 9 0
BBX 9 16 0 0
BITMAP
0C00
1E00
1A00
3B00
3F00
3E00
6180
FF80
FF80
FF80
FF80
FF80
FF80
FF80
FF80
7F00
ENDCHAR
STARTCHAR Otilde
ENCODING 213
SWIDTH 578 0
DWIDTH 9 0
BBX 9 15 0 0
BITMAP
1E00
3F00
3F00
2100
3F00
6180
FF80
FF80
FF80
FF80
FF80
FF80
FF80
FF80
7F00
ENDCHAR
STARTCHAR Odieresis
ENCODING 214
SWIDTH 578 0
DWIDTH 9 0
BBX 9 15 0 0
BITMAP
0C00
3F00
2B00
3F00
3E00
6180
FF80
FF80
FF80
FF80
FF80
FF80
FF80
FF80
7F00
ENDCHAR
STARTCHAR multiply
ENCODING 215
SWIDTH 578 0
DWIDTH 9 0
BBX 9 11 0 0
BITMAP
3E00
7F80
FF80
FB80
F780
FF80
FF80
FF80
FF80
FF80
7F00
ENDCHAR
STARTCHAR Oslash
ENCODING 216
SWIDTH 578 0
DWIDTH 9 0
BBX 9 11 0 0
BITMAP
3E00
6180
DF80
DB80
D780
DF80
ED80
FF80
FF80
FF80
7F00
ENDCHAR
STARTCHAR Ugrave
ENCODING 217
SWIDTH 578 0
DWIDTH 9 0
BBX 9 15 0 0
BITMAP
3C00
3C00
3400
1E00
3E00
7F80
FF80
FF80
FF80
FF80
FD80
FF80
FF80
FF80
7F00
ENDCHAR
STARTCHAR Uacute
ENCODING 218
SWIDTH 578 0
DWIDTH 9 0
BBX 9 15 0 0
BITMAP
0F00
0B00
1B00
1E00
3E00
7F80
FF80
FF80
FF80
FF80
FD80
FF80
FF80
FF80
7F00
ENDCHAR
STARTCHAR Ucircumflex
ENCODING 219
SWIDTH 578 0
DWIDTH 9 0
BBX 9 16 0 0
BITMAP
0C00
1E00
1A00
3B00
3F00
3F00
7F80
FF80
FF80
FF80
FF80
FD80
FF80
FF80
FF80
7F00
ENDCHAR
STARTCHAR Udieresis
ENCODING 220
SWIDTH 578 0
DWIDTH 9 0
BBX 9 15 0 0
BITMAP
0C00
3F00
2B00
3F00
3E00
7F80
FF80
FF80
FF80
FF80
FD80
FF80
FF80
FF80
7F00
ENDCHAR
STARTCHAR Yacute
ENCODING 221
SWIDTH 578 0
DWIDTH 9 0
BBX 9 15 0 0
BITMAP
0F00
1B00
1B00
1E00
3E00
6D80
ED80
FB80
FB80
FF80
FF80
FF80
FF80
FF80
7F00
ENDCHAR
STARTCHAR Thorn
ENCODING 222
SWIDTH 578 0
DWIDTH 9 0
BBX 9 11 0 0
BITMAP
3E00
6F80
E180
ED80
ED80
E180
EF80
FF80
FF80
FF80
7F00
ENDCHAR
STARTCHAR germandbls
ENCODING 223
SWIDTH 578 0
DWIDTH 9 0
BBX 9 11 0 0
BITMAP
3E00
6180
FD80
FF80
FD80
FF80
FD80
FF80
FF80
FF80
7F00
ENDCHAR
STARTCHAR agrave
ENCODING 224
SWIDTH 578 0
DWIDTH 9 0
BBX 9 15 0 0
BITMAP
3C00
3C00
3400
1600
3E00
6180
FD80
FD80
E180
DD80
DD80
FF80
FF80
FF80
7F00
ENDCHAR
STARTCHAR aacute
ENCODING 225
SWIDTH 578 0
DWIDTH 9 0
BBX 9 15 0 0
BITMAP
0F00
0B00
1B00
1E00
3E00
6180
FD80
FD80
E180
DD80
DD80
FF80
FF80
FF80
7F00
ENDCHAR
STARTCHAR acircumflex
ENCODING 226
SWIDTH 578 0
DWIDTH 9 0
BBX 9 16 0 0
BITMAP
0C00
1E00
1A00
3B00
3F00
3E00
6180
FD80
FD80
E180
DD80
DD80
FF80
FF80
FF80
7F00
ENDCHAR
STARTCHAR atilde
ENCODING 227
SWIDTH 578 0
DWIDTH 9 0
BBX 9 15 0 0
BITMAP
1E00
3F00
3F00
2100
3F00
6180
FD80
FD80
E180
DD80
DD80
FF80
FF80
FF80
7F00
ENDCHAR
STARTCHAR adieresis
ENCODING 228
SWIDTH 578 0
DWIDTH 9 0
BBX 9 15 0 0
BITMAP
0C00
3F00
2B00
3F00
3E00
6180
FD80
FD80
E180
DD80
DD80
FF80
FF80
FF80
7F00
ENDCHAR
STARTCHAR aring
ENCODING 229
SWIDTH 578 0
DWIDTH 9 0
BBX 9 15 0 0
BITMAP
1E00
3700
3F00
3300
3F00
6180
FD80
FD80
E180
DD80
DD80
FF80
FF80
FF80
7F00
ENDCHAR
STARTCHAR ae
ENCODING 230
SWIDTH 578 0
DWIDTH 9 0
BBX 9 11 0 0
BITMAP
3E00
6180
DF80
DF80
D980
DF80
DF80
FF80
FF80
FF80
7F00
ENDCHAR
STARTCHAR ccedilla
ENCODING 231
SWIDTH 578 0
DWIDTH 9 0
BBX 9 11 0 0
BITMAP
3E00
6180
DF80
DF80
DF80
DF80
DF80
FF80
FF80
F780
7F00
ENDCHAR
STARTCHAR egrave
ENCODING 232
SWIDTH 578 0
DWIDTH 9 0
BBX 9 15 0 0
BITMAP
3C00
3C00
3400
1600
3E00
6180
DD80
C180
DF80
DF80
C180
FF80
FF80
FF80
7F00
ENDCHAR
STARTCHAR eacute
ENCODING 233
SWIDTH 578 0
DWIDTH 9 0
BBX 9 15 0 0
BITMAP
0F00
1B00
1E00
1600
3E00
6180
DD80
C180
DF80
DF80
C180
FF80
FF80
FF80
7F00
ENDCHAR
STARTCHAR ecircumflex
ENCODING 234
SWIDTH 578 0
DWIDTH 9 0
BBX 9 16 0 0
BITMAP
0C00
1C00
3600
3A00
3F00
3E00
6180
DD80
C180
DF80
DF80
C180
FF80
FF80
FF80
7F00
ENDCHAR
STARTCHAR edieresis
ENCODING 235
SWIDTH 578 0
DWIDTH 9 0
BBX 9 15 0 0
BITMAP
0C00
3E00
6B00
3F00
3E00
6180
DD80
C180
DF80
DF80
C180
FF80
FF80
FF80
7F00
ENDCHAR
STARTCHAR igrave
ENCODING 236
SWIDTH 578 0
DWIDTH 9 0
BBX 9 15 0 0
BITMAP
3C00
3C00
3400
1E00
3E00
6180
FF80
FF80
FF80
FF80
FF80
FF80
FF80
FF80
7F00
ENDCHAR
STARTCHAR iacute
ENCODING 237
SWIDTH 578 0
DWIDTH 9 0
BBX 9 15 0 0
BITMAP
0F00
0B00
1B00
1E00
3E00
6180
FF80
FF80
FF80
FF80
FF80
FF80
FF80
FF80
7F00
ENDCHAR
STARTCHAR icircumflex
ENCODING 238
SWIDTH 578 0
DWIDTH 9 0
BBX 9 16 0 0
BITMAP
0C00
1E00
1600
3700
3F00
3F00
6180
FF80
FF80
FF80
FF80
FF80
FF80
FF80
FF80
7F00
ENDCHAR
STARTCHAR idieresis
ENCODING 239
SWIDTH 578 0
DWIDTH 9 0
BBX 9 15 0 0
BITMAP
0C00
3F00
2D00
3F00
3E00
6180
FF80
FF80
FF80
FF80
FF80
FF80
FF80
FF80
7F00
ENDCHAR
STARTCHAR eth
ENCODING 240
SWIDTH 578 0
DWIDTH 9 0
BBX 9 11 0 0
BITMAP
3E00
6180
FF80
FF80
FF80
FF80
FF80
FF80
FF80
FF80
7F00
ENDCHAR
STARTCHAR ntilde
ENCODING 241
SWIDTH 578 0
DWIDTH 9 0
BBX 9 15 0 0
BITMAP
3E00
3F00
7F00
6300
3F00
6180
FD80
FD80
FD80
FD80
FD80
FF80
FF80
FF80
7F00
ENDCHAR
STARTCHAR oacute
ENCODING 243
SWIDTH 578 0
DWIDTH 9 0
BBX 9 15 0 0
BITMAP
0F00
1B00
1E00
1600
3E00
6180
FF80
FF80
FF80
FF80
FF80
FF80
FF80
FF80
7F00
ENDCHAR
STARTCHAR ocircumflex
ENCODING 244
SWIDTH 578 0
DWIDTH 9 0
BBX 9 16 0 0
BITMAP
0C00
1E00
1A00
3B00
3F00
3F00
6180
FF80
FF80
FF80
FF80
FF80
FF80
FF80
FF80
7F00
ENDCHAR
STARTCHAR otilde
ENCODING 245
SWIDTH 578 0
DWIDTH 9 0
BBX 9 15 0 0
BITMAP
1E00
3F00
7F00
2300
3F00
6180
FF80
FF80
FF80
FF80
FF80
FF80
FF80
FF80
7F00
ENDCHAR
STARTCHAR odieresis
ENCODING 246
SWIDTH 578 0
DWIDTH 9 0
BBX 9 15 0 0
BITMAP
0C00
3F00
2B00
3F00
3E00
6180
FF80
FF80
FF80
FF80
FF80
FF80
FF80
FF80
7F00
ENDCHAR
STARTCHAR divide
ENCODING 247
SWIDTH 428 0
DWIDTH 7 0
BBX 7 11 0 0
BITMAP
38
7C
FE
C6
FE
FE
FE
FE
FE
FC
78
ENDCHAR
STARTCHAR oslash
ENCODING 248
SWIDTH 578 0
DWIDTH 9 0
BBX 9 11 0 0
BITMAP
3E00
6180
DF80
DB80
D780
DF80
ED80
FF80
FF80
FF80
7F00
ENDCHAR
STARTCHAR ugrave
ENCODING 249
SWIDTH 578 0
DWIDTH 9 0
BBX 9 15 0 0
BITMAP
3C00
3C00
3400
1E00
3E00
7F80
FF80
FF80
FF80
FF80
FD80
FF80
FF80
FF80
7F00
ENDCHAR
STARTCHAR uacute
ENCODING 250
SWIDTH 578 0
DWIDTH 9 0
BBX 9 15 0 0
BITMAP
0F00
0B00
1B00
1E00
3E00
7F80
FF80
FF80
FF80
FF80
FD80
FF80
FF80
FF80
7F00
ENDCHAR
STARTCHAR ucircumflex
ENCODING 251
SWIDTH 578 0
DWIDTH 9 0
BBX 9 16 0 0
BITMAP
0C00
1E00
1600
3700
3F00
3F00
7F80
FF80
FF80
FF80
FF80
FD80
FF80
FF80
FF80
7F00
ENDCHAR
STARTCHAR udieresis
ENCODING 252
SWIDTH 578 0
DWIDTH 9 0
BBX 9 15 0 0
BITMAP
0C00
3F00
2D00
3F00
3E00
7F80
FF80
FF80
FF80
FF80
FD80
FF80
FF80
FF80
7F00
ENDCHAR
STARTCHAR yacute
ENCODING 253
SWIDTH 578 0
DWIDTH 9 0
BBX 9 15 0 0
BITMAP
0F00
1B00
1B00
1E00
3E00
6D80
ED80
FB80
FB80
FF80
FF80
FF80
FF80
FF80
7F00
ENDCHAR
STARTCHAR thorn
ENCODING 254
SWIDTH 578 0
DWIDTH 9 0
BBX 9 11 0 0
BITMAP
3E00
6F80
E180
ED80
ED80
E180
EF80
FF80
FF80
FF80
7F00
ENDCHAR
STARTCHAR ydieresis
ENCODING 255
SWIDTH 578 0
DWIDTH 9 0
BBX 9 15 0 0
BITMAP
0C00
3F00
2B00
3F00
3E00
6D80
ED80
FB80
FB80
FF80
FF80
FF80
FF80
FF80
7F00
ENDCHAR
STARTCHAR Amacron
ENCODING 256
SWIDTH 578 0
DWIDTH 9 0
BBX 9 15 0 0
BITMAP
0C00
3F00
7F00
7F00
3F00
6180
ED80
ED80
E180
FD80
DD80
FF80
FF80
FF80
7F00
ENDCHAR
STARTCHAR amacron
ENCODING 257
SWIDTH 578 0
DWIDTH 9 0
BBX 9 15 0 0
BITMAP
0C00
3F00
3F00
3F00
3F00
6180
FD80
FD80
E180
DD80
DD80
FF80
FF80
FF80
7F00
ENDCHAR
STARTCHAR Abreve
ENCODING 258
SWIDTH 578 0
DWIDTH 9 0
BBX 9 15 0 0
BITMAP
0C00
3F00
7F00
7300
3F00
6180
ED80
ED80
E180
FD80
DD80
FF80
FF80
FF80
7F00
ENDCHAR
STARTCHAR abreve
ENCODING 259
SWIDTH 578 0
DWIDTH 9 0
BBX 9 15 0 0
BITMAP
0C00
3F00
3F00
3300
3F00
6180
FD80
FD80
E180
DD80
DD80
FF80
FF80
FF80
7F00
ENDCHAR
STARTCHAR Aogonek
ENCODING 260
SWIDTH 578 0
DWIDTH 9 0
BBX 9 11 0 0
BITMAP
3E00
6180
ED80
ED80
E180
FD80
DD80
FF80
FF80
FD80
7F00
ENDCHAR
STARTCHAR aogonek
ENCODING 261
SWIDTH 578 0
DWIDTH 9 0
BBX 9 11 0 0
BITMAP
3E00
6180
FD80
FD80
E180
DD80
DD80
FF80
F780
F380
7F00
ENDCHAR
STARTCHAR Cacute
ENCODING 262
SWIDTH 578 0
DWIDTH 9 0
BBX 9 15 0 0
BITMAP
0F00
0B00
1B00
1E00
3E00
6180
DF80
DF80
DF80
DF80
DF80
FF80
FF80
FF80
7F00
ENDCHAR
STARTCHAR cacute
ENCODING 263
SWIDTH 578 0
DWIDTH 9 0
BBX 9 15 0 0
BITMAP
0F00
0B00
1B00
1E00
3E00
6180
DF80
DF80
DF80
DF80
DF80
FF80
FF80
FF80
7F00
ENDCHAR
STARTCHAR Ccircumflex
ENCODING 264
SWIDTH 578 0
DWIDTH 9 0
BBX 9 16 0 0
BITMAP
0C00
1E00
1600
3B00
3F00
3E00
6180
DF80
DF80
DF80
DF80
DF80
FF80
FF80
FF80
7F00
ENDCHAR
STARTCHAR ccircumflex
ENCODING 265
SWIDTH 578 0
DWIDTH 9 0
BBX 9 16 0 0
BITMAP
0C00
1E00
1600
3A00
3F00
3E00
6180
DF80
DF80
DF80
DF80
DF80
FF80
FF80
FF80
7F00
ENDCHAR
STARTCHAR Cdotaccent
ENCODING 266
SWIDTH 578 0
DWIDTH 9 0
BBX 9 15 0 0
BITMAP
1C00
3E00
7F00
7700
3E00
6180
DF80
DF80
DF80
DF80
DF80
FF80
FF80
FF80
7F00
ENDCHAR
STARTCHAR cdotaccent
ENCODING 267
SWIDTH 578 0
DWIDTH 9 0
BBX 9 15 0 0
BITMAP
1C00
3F00
7F00
7700
3F00
6180
DF80
DF80
DF80
DF80
DF80
FF80
FF80
FF80
7F00
ENDCHAR
STARTCHAR Ccaron
ENCODING 268
SWIDTH 578 0
DWIDTH 9 0
BBX 9 15 0 0
BITMAP
3E00
2A00
3E00
3600
3E00
6180
DF80
DF80
DF80
DF80
DF80
FF80
FF80
FF80
7F00
ENDCHAR
STARTCHAR ccaron
ENCODING 269
SWIDTH 578 0
DWIDTH 9 0
BBX 9 15 0 0
BITMAP
3E00
2B00
3A00
3600
3E00
6180
DF80
DF80
DF80
DF80
DF80
FF80
FF80
FF80
7F00
ENDCHAR
STARTCHAR Dcaron
ENCODING 270
SWIDTH 578 0
DWIDTH 9 0
BBX 9 15 0 0
BITMAP
3E00
2B00
3E00
3600
3E00
6180
FF80
FF80
FF80
FF80
FF80
FF80
FF80
FF80
7F00
ENDCHAR
STARTCHAR dcaron
ENCODING 271
SWIDTH 578 0
DWIDTH 9 0
BBX 9 11 0 0
BITMAP
3F00
4280
DE80
DF80
DF80
DF80
DF80
FF80
FF80
FF80
7F00
ENDCHAR
STARTCHAR Dcroat
ENCODING 272
SWIDTH 578 0
DWIDTH 9 0
BBX 9 11 0 0
BITMAP
3E00
6180
FF80
FF80
FF80
FF80
FF80
FF80
FF80
FF80
7F00
ENDCHAR
STARTCHAR dcroat
ENCODING 273
SWIDTH 578 0
DWIDTH 9 0
BBX 9 11 0 0
BITMAP
3E00
6180
FF80
FF80
FF80
FF80
FF80
FF80
FF80
FF80
7F00
ENDCHAR
STARTCHAR Emacron
ENCODING 274
SWIDTH 578 0
DWIDTH 9 0
BBX 9 15 0 0
BITMAP
0C00
3F00
3F80
3F00
3F00
6180
EF80
EF80
E180
EF80
EF80
FF80
FF80
FF80
7F00
ENDCHAR
STARTCHAR emacron
ENCODING 275
SWIDTH 578 0
DWIDTH 9 0
BBX 9 15 0 0
BITMAP
1C00
3F00
7F00
7F00
3E00
6180
DD80
C180
DF80
DF80
C180
FF80
FF80
FF80
7F00
ENDCHAR
STARTCHAR Ebreve
ENCODING 276
SWIDTH 578 0
DWIDTH 9 0
BBX 9 15 0 0
BITMAP
0C00
3F00
3F80
3300
3F00
6180
EF80
EF80
E180
EF80
EF80
FF80
FF80
FF80
7F00
ENDCHAR
STARTCHAR ebreve
ENCODING 277
SWIDTH 578 0
DWIDTH 9 0
BBX 9 15 0 0
BITMAP
1C00
3F00
7F00
6300
3E00
6180
DD80
C180
DF80
DF80
C180
FF80
FF80
FF80
7F00
ENDCHAR
STARTCHAR Edotaccent
ENCODING 278
SWIDTH 578 0
DWIDTH 9 0
BBX 9 15 0 0
BITMAP
0C00
3F00
3F80
3B00
3F00
6180
EF80
EF80
E180
EF80
EF80
FF80
FF80
FF80
7F00
ENDCHAR
STARTCHAR edotaccent
ENCODING 279
SWIDTH 578 0
DWIDTH 9 0
BBX 9 15 0 0
BITMAP
1C00
3F00
7F00
7700
3F00
6180
DD80
C180
DF80
DF80
C180
FF80
FF80
FF80
7F00
ENDCHAR
STARTCHAR Eogonek
ENCODING 280
SWIDTH 578 0
DWIDTH 9 0
BBX 9 11 0 0
BITMAP
3E00
6180
EF80
EF80
E180
EF80
EF80
FD80
FB80
FD80
7F00
ENDCHAR
STARTCHAR eogonek
ENCODING 281
SWIDTH 578 0
DWIDTH 9 0
BBX 9 11 0 0
BITMAP
3E00
6180
DD80
C180
DF80
DF80
C180
FB80
F780
FB80
7F00
ENDCHAR
STARTCHAR Ecaron
ENCODING 282
SWIDTH 578 0
DWIDTH 9 0
BBX 9 15 0 0
BITMAP
3F00
3F00
3700
1A00
3E00
6180
EF80
EF80
E180
EF80
EF80
FF80
FF80
FF80
7F00
ENDCHAR
STARTCHAR ecaron
ENCODING 283
SWIDTH 578 0
DWIDTH 9 0
BBX 9 15 0 0
BITMAP
3E00
2B00
3E00
3600
3E00
6180
DD80
C180
DF80
DF80
C180
FF80
FF80
FF80
7F00
ENDCHAR
STARTCHAR Gcircumflex
ENCODING 284
SWIDTH 578 0
DWIDTH 9 0
BBX 9 16 0 0
BITMAP
0C00
1E00
1600
3A00
3F00
3E00
6180
EF80
EF80
E980
EF80
EF80
FF80
FF80
FF80
7F00
ENDCHAR
STARTCHAR gcircumflex
ENCODING 285
SWIDTH 578 0
DWIDTH 9 0
BBX 9 16 0 0
BITMAP
0C00
1E00
1600
3A00
3F00
3E00
6180
EF80
EF80
E980
EF80
EF80
FF80
FF80
FF80
7F00
ENDCHAR
STARTCHAR Gbreve
ENCODING 286
SWIDTH 578 0
DWIDTH 9 0
BBX 9 15 0 0
BITMAP
1C00
3F00
7F00
7300
3F00
6180
EF80
EF80
E980
EF80
EF80
FF80
FF80
FF80
7F00
ENDCHAR
STARTCHAR gbreve
ENCODING 287
SWIDTH 578 0
DWIDTH 9 0
BBX 9 15 0 0
BITMAP
1C00
3F00
7F00
6300
3E00
6180
EF80
EF80
E980
EF80
EF80
FF80
FF80
FF80
7F00
ENDCHAR
STARTCHAR Gdotaccent
ENCODING 288
SWIDTH 578 0
DWIDTH 9 0
BBX 9 15 0 0
BITMAP
1C00
3F00
7F00
7700
3F00
6180
EF80
EF80
E980
EF80
EF80
FF80
FF80
FF80
7F00
ENDCHAR
STARTCHAR gdotaccent
ENCODING 289
SWIDTH 578 0
DWIDTH 9 0
BBX 9 15 0 0
BITMAP
1C00
3F00
7F00
7700
3F00
6180
EF80
EF80
E980
EF80
EF80
FF80
FF80
FF80
7F00
ENDCHAR
STARTCHAR Gcommaaccent
ENCODING 290
SWIDTH 578 0
DWIDTH 9 0
BBX 9 11 0 0
BITMAP
3E00
6180
EF80
EF80
E980
EF80
EF80
FF80
FB80
FF80
7F00
ENDCHAR
STARTCHAR gcommaaccent
ENCODING 291
SWIDTH 578 0
DWIDTH 9 0
BBX 9 11 0 0
BITMAP
3E00
6180
EF80
EF80
E980
EF80
EF80
FF80
FB80
FF80
7F00
ENDCHAR
STARTCHAR Hcircumflex
ENCODING 292
SWIDTH 578 0
DWIDTH 9 0
BBX 9 16 0 0
BITMAP
0C00
1E00
1600
3A00
3F00
3E00
7F80
FF80
FF80
E180
FF80
FF80
FF80
FF80
FF80
7F00
ENDCHAR
STARTCHAR hcircumflex
ENCODING 293
SWIDTH 578 0
DWIDTH 9 0
BBX 9 16 0 0
BITMAP
0C00
1E00
1A00
3B00
3F00
3E00
7F80
FF80
FF80
E180
FF80
FF80
FF80
FF80
FF80
7F00
ENDCHAR
STARTCHAR Hbar
ENCODING 294
SWIDTH 578 0
DWIDTH 9 0
BBX 9 15 0 0
BITMAP
1C00
3F00
7F00
7F00
3F00
7F80
FF80
FF80
E180
FF80
FF80
FF80
FF80
FF80
7F00
ENDCHAR
STARTCHAR hbar
ENCODING 295
SWIDTH 578 0
DWIDTH 9 0
BBX 9 11 0 0
BITMAP
3E00
7F80
C080
FF80
E180
FF80
FF80
FF80
FF80
FF80
7F00
ENDCHAR
STARTCHAR Itilde
ENCODING 296
SWIDTH 578 0
DWIDTH 9 0
BBX 9 15 0 0
BITMAP
1E00
3F00
3F80
2100
3F00
6180
FF80
FF80
FF80
FF80
FF80
FF80
FF80
FF80
7F00
ENDCHAR
STARTCHAR itilde
ENCODING 297
SWIDTH 578 0
DWIDTH 9 0
BBX 9 15 0 0
BITMAP
1E00
3F00
3F80
2100
3F00
6180
FF80
FF80
FF80
FF80
FF80
FF80
FF80
FF80
7F00
ENDCHAR
STARTCHAR Imacron
ENCODING 298
SWIDTH 578 0
DWIDTH 9 0
BBX 9 15 0 0
BITMAP
0C00
3F00
3F00
3F00
3F00
6180
FF80
FF80
FF80
FF80
FF80
FF80
FF80
FF80
7F00
ENDCHAR
STARTCHAR imacron
ENCODING 299
SWIDTH 578 0
DWIDTH 9 0
BBX 9 15 0 0
BITMAP
0C00
3F00
7F00
3F00
3F00
6180
FF80
FF80
FF80
FF80
FF80
FF80
FF80
FF80
7F00
ENDCHAR
STARTCHAR Ibreve
ENCODING 300
SWIDTH 578 0
DWIDTH 9 0
BBX 9 15 0 0
BITMAP
0C00
3F00
3F80
3300
3F00
6180
FF80
FF80
FF80
FF80
FF80
FF80
FF80
FF80
7F00
ENDCHAR
STARTCHAR ibreve
ENCODING 301
SWIDTH 578 0
DWIDTH 9 0
BBX 9 15 0 0
BITMAP
0C00
3F00
3F80
3300
3F00
6180
FF80
FF80
FF80
FF80
FF80
FF80
FF80
FF80
7F00
ENDCHAR
STARTCHAR Iogonek
ENCODING 302
SWIDTH 578 0
DWIDTH 9 0
BBX 9 11 0 0
BITMAP
3E00
6180
FF80
FF80
FF80
FF80
FF80
FF80
FF80
FD80
7F00
ENDCHAR
STARTCHAR iogonek
ENCODING 303
SWIDTH 578 0
DWIDTH 9 0
BBX 9 11 0 0
BITMAP
3E00
6180
FF80
FF80
FF80
FF80
FF80
FF80
FF80
FD80
7F00
ENDCHAR
STARTCHAR Idotaccent
ENCODING 304
SWIDTH 578 0
DWIDTH 9 0
BBX 9 15 0 0
BITMAP
1C00
3F00
7F00
7700
3F00
6180
FF80
FF80
FF80
FF80
FF80
FF80
FF80
FF80
7F00
ENDCHAR
STARTCHAR dotlessi
ENCODING 305
SWIDTH 578 0
DWIDTH 9 0
BBX 9 11 0 0
BITMAP
3E00
6180
FF80
FF80
FF80
FF80
FF80
FF80
FF80
FF80
7F00
ENDCHAR
STARTCHAR IJ
ENCODING 306
SWIDTH 578 0
DWIDTH 9 0
BBX 9 11 0 0
BITMAP
7F00
8680
FE80
FE80
FE80
FE80
FE80
FF80
FF80
FF80
7F00
ENDCHAR
STARTCHAR ij
ENCODING 307
SWIDTH 578 0
DWIDTH 9 0
BBX 9 11 0 0
BITMAP
7F00
8680
FE80
FE80
FE80
FE80
FE80
FF80
FF80
FF80
7F00
ENDCHAR
STARTCHAR Jcircumflex
ENCODING 308
SWIDTH 578 0
DWIDTH 9 0
BBX 9 16 0 0
BITMAP
0C00
1E00
1A00
3B00
3F00
3E00
7B80
FB80
FB80
FB80
FB80
FB80
FF80
FF80
FF80
7F00
ENDCHAR
STARTCHAR jcircumflex
ENCODING 309
SWIDTH 578 0
DWIDTH 9 0
BBX 9 16 0 0
BITMAP
0C00
1E00
1A00
3B00
3F00
3E00
7B80
FB80
FB80
FB80
FB80
FB80
FF80
FF80
FF80
7F00
ENDCHAR
STARTCHAR Kcommaaccent
ENCODING 310
SWIDTH 578 0
DWIDTH 9 0
BBX 9 11 0 0
BITMAP
3F00
6C80
E980
EB80
E780
EB80
ED80
FF80
FB80
FF80
7F00
ENDCHAR
STARTCHAR kcommaaccent
ENCODING 311
SWIDTH 578 0
DWIDTH 9 0
BBX 9 11 0 0
BITMAP
3F00
6C80
E980
EB80
E780
EB80
ED80
FF80
FB80
FF80
7F00
ENDCHAR
STARTCHAR kgreenlandic
ENCODING 312
SWIDTH 578 0
DWIDTH 9 0
BBX 9 11 0 0
BITMAP
3F00
6C80
E980
EB80
E780
EB80
ED80
FF80
FF80
FF80
7F00
ENDCHAR
STARTCHAR Lacute
ENCODING 313
SWIDTH 578 0
DWIDTH 9 0
BBX 9 15 0 0
BITMAP
1E00
1600
3600
3C00
3E00
7F80
FF80
FF80
FF80
FF80
FF80
FF80
FF80
FF80
7F00
ENDCHAR
STARTCHAR lacute
ENCODING 314
SWIDTH 578 0
DWIDTH 9 0
BBX 9 15 0 0
BITMAP
1E00
1600
3600
3C00
3E00
7F80
FF80
FF80
FF80
FF80
FF80
FF80
FF80
FF80
7F00
ENDCHAR
STARTCHAR Lcommaaccent
ENCODING 315
SWIDTH 578 0
DWIDTH 9 0
BBX 9 11 0 0
BITMAP
3E00
7F80
FF80
FF80
FF80
FF80
FF80
FF80
FB80
FF80
7F00
ENDCHAR
STARTCHAR lcommaaccent
ENCODING 316
SWIDTH 578 0
DWIDTH 9 0
BBX 9 11 0 0
BITMAP
3E00
7F80
FF80
FF80
FF80
FF80
FF80
FF80
FB80
FF80
7F00
ENDCHAR
STARTCHAR Lcaron
ENCODING 317
SWIDTH 578 0
DWIDTH 9 0
BBX 9 11 0 0
BITMAP
3E00
7980
FF80
FF80
FF80
FF80
FF80
FF80
FF80
FF80
7F00
ENDCHAR
STARTCHAR lcaron
ENCODING 318
SWIDTH 578 0
DWIDTH 9 0
BBX 9 11 0 0
BITMAP
3E00
7980
FF80
FF80
FF80
FF80
FF80
FF80
FF80
FF80
7F00
ENDCHAR
STARTCHAR Ldot
ENCODING 319
SWIDTH 578 0
DWIDTH 9 0
BBX 9 11 0 0
BITMAP
3E00
7F80
FF80
FB80
FF80
FF80
FF80
FF80
FF80
FF80
7F00
ENDCHAR
STARTCHAR ldot
ENCODING 320
SWIDTH 578 0
DWIDTH 9 0
BBX 9 11 0 0
BITMAP
3E00
7F80
FF80
FB80
FF80
FF80
FF80
FF80
FF80
FF80
7F00
ENDCHAR
STARTCHAR Lslash
ENCODING 321
SWIDTH 578 0
DWIDTH 9 0
BBX 9 11 0 0
BITMAP
3E00
7F80
FF80
F780
FF80
FF80
FF80
FF80
FF80
FF80
7F00
ENDCHAR
STARTCHAR lslash
ENCODING 322
SWIDTH 578 0
DWIDTH 9 0
BBX 9 11 0 0
BITMAP
3E00
7F80
FF80
F780
FF80
FF80
FF80
FF80
FF80
FF80
7F00
ENDCHAR
STARTCHAR Nacute
ENCODING 323
SWIDTH 578 0
DWIDTH 9 0
BBX 9 15 0 0
BITMAP
0F00
1B00
1E00
1600
3E00
6180
FD80
FD80
FD80
FD80
FD80
FF80
FF80
FF80
7F00
ENDCHAR
STARTCHAR nacute
ENCODING 324
SWIDTH 578 0
DWIDTH 9 0
BBX 9 15 0 0
BITMAP
0F00
1B00
1E00
1600
3E00
6180
FD80
FD80
FD80
FD80
FD80
FF80
FF80
FF80
7F00
ENDCHAR
STARTCHAR Ncommaaccent
ENCODING 325
SWIDTH 578 0
DWIDTH 9 0
BBX 9 11 0 0
BITMAP
3E00
6180
FD80
FD80
FD80
FD80
FD80
FF80
FB80
FF80
7F00
ENDCHAR
STARTCHAR ncommaaccent
ENCODING 326
SWIDTH 578 0
DWIDTH 9 0
BBX 9 11 0 0
BITMAP
3E00
6180
FD80
FD80
FD80
FD80
FD80
FF80
FB80
FF80
7F00
ENDCHAR
STARTCHAR Ncaron
ENCODING 327
SWIDTH 578 0
DWIDTH 9 0
BBX 9 15 0 0
BITMAP
3E00
2B00
3E00
3600
3E00
6180
FD80
FD80
FD80
FD80
FD80
FF80
FF80
FF80
7F00
ENDCHAR
STARTCHAR ncaron
ENCODING 328
SWIDTH 578 0
DWIDTH 9 0
BBX 9 15 0 0
BITMAP
3E00
2B00
3E00
3600
3E00
6180
FD80
FD80
FD80
FD80
FD80
FF80
FF80
FF80
7F00
ENDCHAR
STARTCHAR napostrophe
ENCODING 329
SWIDTH 578 0
DWIDTH 9 0
BBX 9 11 0 0
BITMAP
3E00
6180
BD80
BD80
FD80
FD80
FD80
FF80
FF80
FF80
7F00
ENDCHAR
STARTCHAR Eng
ENCODING 330
SWIDTH 578 0
DWIDTH 9 0
BBX 9 11 0 0
BITMAP
3E00
6180
FD80
FD80
FD80
FD80
FD80
FD80
FD80
F980
7F00
ENDCHAR
STARTCHAR eng
ENCODING 331
SWIDTH 578 0
DWIDTH 9 0
BBX 9 11 0 0
BITMAP
3E00
6180
FD80
FD80
FD80
FD80
FD80
FD80
FD80
F980
7F00
ENDCHAR
STARTCHAR Omacron
ENCODING 332
SWIDTH 578 0
DWIDTH 9 0
BBX 9 15 0 0
BITMAP
0C00
3F00
3F00
3F00
3F00
6180
FF80
FF80
FF80
FF80
FF80
FF80
FF80
FF80
7F00
ENDCHAR
STARTCHAR omacron
ENCODING 333
SWIDTH 578 0
DWIDTH 9 0
BBX 9 15 0 0
BITMAP
0C00
3F00
3F00
3F00
3F00
6180
FF80
FF80
FF80
FF80
FF80
FF80
FF80
FF80
7F00
ENDCHAR
STARTCHAR Obreve
ENCODING 334
SWIDTH 578 0
DWIDTH 9 0
BBX 9 15 0 0
BITMAP
0C00
3F00
3F00
3300
3F00
6180
FF80
FF80
FF80
FF80
FF80
FF80
FF80
FF80
7F00
ENDCHAR
STARTCHAR obreve
ENCODING 335
SWIDTH 578 0
DWIDTH 9 0
BBX 9 15 0 0
BITMAP
0C00
3F00
3F00
3300
3F00
6180
FF80
FF80
FF80
FF80
FF80
FF80
FF80
FF80
7F00
ENDCHAR
STARTCHAR Ohungarumlaut
ENCODING 336
SWIDTH 578 0
DWIDTH 9 0
BBX 9 16 0 0
BITMAP
0500
0F80
1A80
1D80
1F00
3E00
6180
FF80
FF80
FF80
FF80
FF80
FF80
FF80
FF80
7F00
ENDCHAR
STARTCHAR ohungarumlaut
ENCODING 337
SWIDTH 578 0
DWIDTH 9 0
BBX 9 16 0 0
BITMAP
0500
0F80
1A80
1D80
1F00
3E00
6180
FF80
FF80
FF80
FF80
FF80
FF80
FF80
FF80
7F00
ENDCHAR
STARTCHAR OE
ENCODING 338
SWIDTH 578 0
DWIDTH 9 0
BBX 9 11 0 0
BITMAP
3F00
4080
DF80
DF80
D980
DF80
DF80
FF80
FF80
FF80
7F00
ENDCHAR
STARTCHAR oe
ENCODING 339
SWIDTH 578 0
DWIDTH 9 0
BBX 9 11 0 0
BITMAP
3F00
4080
DF80
DF80
D980
DF80
DF80
FF80
FF80
FF80
7F00
ENDCHAR
STARTCHAR Racute
ENCODING 340
SWIDTH 578 0
DWIDTH 9 0
BBX 9 15 0 0
BITMAP
0F00
1B00
1E00
1600
3E00
6180
ED80
ED80
E380
ED80
ED80
FF80
FF80
FF80
7F00
ENDCHAR
STARTCHAR racute
ENCODING 341
SWIDTH 578 0
DWIDTH 9 0
BBX 9 15 0 0
BITMAP
0F00
1B00
1E00
1600
3E00
6180
ED80
ED80
E380
ED80
ED80
FF80
FF80
FF80
7F00
ENDCHAR
STARTCHAR Rcommaaccent
ENCODING 342
SWIDTH 578 0
DWIDTH 9 0
BBX 9 11 0 0
BITMAP
3E00
6180
ED80
ED80
E380
ED80
ED80
FF80
FB80
FF80
7F00
ENDCHAR
STARTCHAR rcommaaccent
ENCODING 343
SWIDTH 578 0
DWIDTH 9 0
BBX 9 11 0 0
BITMAP
3E00
6180
ED80
ED80
E380
ED80
ED80
FF80
FB80
FF80
7F00
ENDCHAR
STARTCHAR Rcaron
ENCODING 344
SWIDTH 578 0
DWIDTH 9 0
BBX 9 15 0 0
BITMAP
3E00
2B00
3E00
3600
3E00
6180
ED80
ED80
E380
ED80
ED80
FF80
FF80
FF80
7F00
ENDCHAR
STARTCHAR rcaron
ENCODING 345
SWIDTH 578 0
DWIDTH 9 0
BBX 9 15 0 0
BITMAP
3E00
2B00
3E00
3600
3E00
6180
ED80
ED80
E380
ED80
ED80
FF80
FF80
FF80
7F00
ENDCHAR
STARTCHAR Sacute
ENCODING 346
SWIDTH 578 0
DWIDTH 9 0
BBX 9 15 0 0
BITMAP
0F00
0B00
1B00
1E00
3E00
6180
EF80
EF80
E180
FD80
FD80
FF80
FF80
FF80
7F00
ENDCHAR
STARTCHAR sacute
ENCODING 347
SWIDTH 578 0
DWIDTH 9 0
BBX 9 15 0 0
BITMAP
0F00
0B00
1B00
1E00
3E00
6180
EF80
EF80
E180
FD80
FD80
FF80
FF80
FF80
7F00
ENDCHAR
STARTCHAR Scircumflex
ENCODING 348
SWIDTH 578 0
DWIDTH 9 0
BBX 9 16 0 0
BITMAP
0C00
1E00
1600
3700
3F00
3F00
6180
EF80
EF80
E180
FD80
FD80
FF80
FF80
FF80
7F00
ENDCHAR
STARTCHAR scircumflex
ENCODING 349
SWIDTH 578 0
DWIDTH 9 0
BBX 9 16 0 0
BITMAP
0C00
1E00
1600
3700
3F00
3F00
6180
EF80
EF80
E180
FD80
FD80
FF80
FF80
FF80
7F00
ENDCHAR
STARTCHAR Scedilla
ENCODING 350
SWIDTH 578 0
DWIDTH 9 0
BBX 9 11 0 0
BITMAP
3E00
6180
EF80
EF80
E180
FD80
FD80
FF80
FF80
F780
7F00
ENDCHAR
STARTCHAR scedilla
ENCODING 351
SWIDTH 578 0
DWIDTH 9 0
BBX 9 11 0 0
BITMAP
3E00
6180
EF80
EF80
E180
FD80
FD80
FF80
FF80
F780
7F00
ENDCHAR
STARTCHAR Scaron
ENCODING 352
SWIDTH 578 0
DWIDTH 9 0
BBX 9 15 0 0
BITMAP
3F00
3700
3700
1B00
3E00
6180
EF80
EF80
E180
FD80
FD80
FF80
FF80
FF80
7F00
ENDCHAR
STARTCHAR scaron
ENCODING 353
SWIDTH 578 0
DWIDTH 9 0
BBX 9 15 0 0
BITMAP
3F00
3700
3700
1B00
3E00
6180
EF80
EF80
E180
FD80
FD80
FF80
FF80
FF80
7F00
ENDCHAR
STARTCHAR Tcommaaccent
ENCODING 354
SWIDTH 578 0
DWIDTH 9 0
BBX 9 11 0 0
BITMAP
3E00
6180
FF80
FF80
FF80
FF80
FF80
FF80
FB80
FF80
7F00
ENDCHAR
STARTCHAR tcommaaccent
ENCODING 355
SWIDTH 578 0
DWIDTH 9 0
BBX 9 11 0 0
BITMAP
3E00
6180
FF80
FF80
FF80
FF80
FF80
FF80
FB80
FF80
7F00
ENDCHAR
STARTCHAR Tcaron
ENCODING 356
SWIDTH 578 0
DWIDTH 9 0
BBX 9 15 0 0
BITMAP
3F00
3F00
3B00
1600
3E00
6180
FF80
FF80
FF80
FF80
FF80
FF80
FF80
FF80
7F00
ENDCHAR
STARTCHAR tcaron
ENCODING 357
SWIDTH 578 0
DWIDTH 9 0
BBX 9 11 0 0
BITMAP
3E00
6180
FF80
FF80
FF80
FF80
FF80
FF80
FF80
FF80
7F00
ENDCHAR
STARTCHAR Tbar
ENCODING 358
SWIDTH 578 0
DWIDTH 9 0
BBX 9 11 0 0
BITMAP
3E00
6180
FF80
FF80
F380
FF80
FF80
FF80
FF80
FF80
7F00
ENDCHAR
STARTCHAR tbar
ENCODING 359
SWIDTH 578 0
DWIDTH 9 0
BBX 9 11 0 0
BITMAP
3E00
6180
FF80
FF80
F380
FF80
FF80
FF80
FF80
FF80
7F00
ENDCHAR
STARTCHAR Utilde
ENCODING 360
SWIDTH 578 0
DWIDTH 9 0
BBX 9 15 0 0
BITMAP
1E00
3F00
3F80
2100
3F00
7F80
FF80
FF80
FF80
FF80
FD80
FF80
FF80
FF80
7F00
ENDCHAR
STARTCHAR utilde
ENCODING 361
SWIDTH 578 0
DWIDTH 9 0
BBX 9 15 0 0
BITMAP
1E00
3F00
3F80
2100
3F00
7F80
FF80
FF80
FF80
FF80
FD80
FF80
FF80
FF80
7F00
ENDCHAR
STARTCHAR Umacron
ENCODING 362
SWIDTH 578 0
DWIDTH 9 0
BBX 9 15 0 0
BITMAP
0C00
3F00
3F80
3F00
3F00
7F80
FF80
FF80
FF80
FF80
FD80
FF80
FF80
FF80
7F00
ENDCHAR
STARTCHAR umacron
ENCODING 363
SWIDTH 578 0
DWIDTH 9 0
BBX 9 15 0 0
BITMAP
0C00
3F00
3F80
3F00
3F00
7F80
FF80
FF80
FF80
FF80
FD80
FF80
FF80
FF80
7F00
ENDCHAR
STARTCHAR Ubreve
ENCODING 364
SWIDTH 578 0
DWIDTH 9 0
BBX 9 15 0 0
BITMAP
0C00
3F00
3F80
3300
3F00
7F80
FF80
FF80
FF80
FF80
FD80
FF80
FF80
FF80
7F00
ENDCHAR
STARTCHAR ubreve
ENCODING 365
SWIDTH 578 0
DWIDTH 9 0
BBX 9 15 0 0
BITMAP
0C00
3F00
3F80
3300
3F00
7F80
FF80
FF80
FF80
FF80
FD80
FF80
FF80
FF80
7F00
ENDCHAR
STARTCHAR Uring
ENCODING 366
SWIDTH 578 0
DWIDTH 9 0
BBX 9 15 0 0
BITMAP
1E00
3700
3F00
3300
3F00
7F80
FF80
FF80
FF80
FF80
FD80
FF80
FF80
FF80
7F00
ENDCHAR
STARTCHAR uring
ENCODING 367
SWIDTH 578 0
DWIDTH 9 0
BBX 9 15 0 0
BITMAP
1E00
3700
3F00
3300
3F00
7F80
FF80
FF80
FF80
FF80
FD80
FF80
FF80
FF80
7F00
ENDCHAR
STARTCHAR Uhungarumlaut
ENCODING 368
SWIDTH 581 0
DWIDTH 9 0
BBX 9 16 0 0
BITMAP
0500
0F80
1A80
1D80
1700
3E00
7F80
FF80
FF80
FF80
FF80
FD80
FF80
FF80
FF80
7F00
ENDCHAR
STARTCHAR uhungarumlaut
ENCODING 369
SWIDTH 582 0
DWIDTH 9 0
BBX 9 16 0 0
BITMAP
0500
0F80
1A80
1D80
1700
3E00
7F80
FF80
FF80
FF80
FF80
FD80
FF80
FF80
FF80
7F00
ENDCHAR
STARTCHAR Uogonek
ENCODING 370
SWIDTH 578 0
DWIDTH 9 0
BBX 9 11 0 0
BITMAP
3E00
7F80
FF80
FF80
FF80
FF80
FD80
FB80
F780
F380
7F00
ENDCHAR
STARTCHAR uogonek
ENCODING 371
SWIDTH 578 0
DWIDTH 9 0
BBX 9 11 0 0
BITMAP
3E00
7F80
FF80
FF80
FF80
FF80
FD80
FB80
F780
F380
7F00
ENDCHAR
STARTCHAR Wcircumflex
ENCODING 372
SWIDTH 578 0
DWIDTH 9 0
BBX 9 16 0 0
BITMAP
0C00
1E00
1600
3A00
3F00
3F00
5680
D680
DA80
DA80
DB80
DB80
FF80
FF80
FF80
7F00
ENDCHAR
STARTCHAR wcircumflex
ENCODING 373
SWIDTH 578 0
DWIDTH 9 0
BBX 9 16 0 0
BITMAP
0C00
1E00
1600
3A00
3F00
3F00
5680
D680
DA80
DA80
DB80
DB80
FF80
FF80
FF80
7F00
ENDCHAR
STARTCHAR Ycircumflex
ENCODING 374
SWIDTH 578 0
DWIDTH 9 0
BBX 9 16 0 0
BITMAP
0C00
1E00
1A00
3B00
3F00
3E00
6D80
ED80
FB80
FB80
FF80
FF80
FF80
FF80
FF80
7F00
ENDCHAR
STARTCHAR ycircumflex
ENCODING 375
SWIDTH 578 0
DWIDTH 9 0
BBX 9 16 0 0
BITMAP
0C00
1E00
1A00
3B00
3F00
3E00
6D80
ED80
FB80
FB80
FF80
FF80
FF80
FF80
FF80
7F00
ENDCHAR
STARTCHAR Ydieresis
ENCODING 376
SWIDTH 578 0
DWIDTH 9 0
BBX 9 15 0 0
BITMAP
0C00
3F00
2B00
3F00
3E00
6D80
ED80
FB80
FB80
FF80
FF80
FF80
FF80
FF80
7F00
ENDCHAR
STARTCHAR Zacute
ENCODING 377
SWIDTH 578 0
DWIDTH 9 0
BBX 9 15 0 0
BITMAP
1E00
1E00
1600
3400
3E00
6180
FF80
FB80
F780
F780
EF80
FF80
FF80
FF80
7F00
ENDCHAR
STARTCHAR zacute
ENCODING 378
SWIDTH 578 0
DWIDTH 9 0
BBX 9 15 0 0
BITMAP
1E00
1E00
1600
3400
3E00
6180
FF80
FB80
F780
F780
EF80
FF80
FF80
FF80
7F00
ENDCHAR
STARTCHAR Zdotaccent
ENCODING 379
SWIDTH 578 0
DWIDTH 9 0
BBX 9 15 0 0
BITMAP
1C00
3F00
7F00
7700
3F00
6180
FF80
FB80
F780
F780
EF80
FF80
FF80
FF80
7F00
ENDCHAR
STARTCHAR zdotaccent
ENCODING 380
SWIDTH 578 0
DWIDTH 9 0
BBX 9 15 0 0
BITMAP
1C00
3F00
7F00
7700
3F00
6180
FF80
FB80
F780
F780
EF80
FF80
FF80
FF80
7F00
ENDCHAR
STARTCHAR Zcaron
ENCODING 381
SWIDTH 578 0
DWIDTH 9 0
BBX 9 15 0 0
BITMAP
3E00
3B00
3A00
3600
3E00
6180
FF80
FB80
F780
F780
EF80
FF80
FF80
FF80
7F00
ENDCHAR
STARTCHAR zcaron
ENCODING 382
SWIDTH 578 0
DWIDTH 9 0
BBX 9 15 0 0
BITMAP
3E00
3B00
3A00
3600
3E00
6180
FF80
FB80
F780
F780
EF80
FF80
FF80
FF80
7F00
ENDCHAR
STARTCHAR longs
ENCODING 383
SWIDTH 578 0
DWIDTH 9 0
BBX 9 11 0 0
BITMAP
3E00
7380
ED80
DF80
DF80
ED80
FF80
FF80
FF80
FF80
7F00
ENDCHAR
STARTCHAR florin
ENCODING 402
SWIDTH 578 0
DWIDTH 9 0
BBX 9 11 0 0
BITMAP
3E00
7380
F780
F780
F780
F780
F780
F780
EF80
FF80
7F00
ENDCHAR
STARTCHAR uni01CD
ENCODING 461
SWIDTH 578 0
DWIDTH 9 0
BBX 9 15 0 0
BITMAP
3F00
3F00
3B00
1600
3E00
6180
ED80
ED80
E180
FD80
DD80
FF80
FF80
FF80
7F00
ENDCHAR
STARTCHAR uni01CE
ENCODING 462
SWIDTH 578 0
DWIDTH 9 0
BBX 9 15 0 0
BITMAP
3F00
3F00
3700
1A00
3E00
6180
FD80
FD80
E180
DD80
DD80
FF80
FF80
FF80
7F00
ENDCHAR
STARTCHAR uni01CF
ENCODING 463
SWIDTH 578 0
DWIDTH 9 0
BBX 9 15 0 0
BITMAP
3F00
3700
3700
1B00
3E00
6180
FF80
FF80
FF80
FF80
FF80
FF80
FF80
FF80
7F00
ENDCHAR
STARTCHAR uni01D0
ENCODING 464
SWIDTH 578 0
DWIDTH 9 0
BBX 9 15 0 0
BITMAP
3F00
3F00
3700
1A00
3E00
6180
FF80
FF80
FF80
FF80
FF80
FF80
FF80
FF80
7F00
ENDCHAR
STARTCHAR uni01D1
ENCODING 465
SWIDTH 578 0
DWIDTH 9 0
BBX 9 15 0 0
BITMAP
3F00
3F00
3700
1E00
3E00
6180
FF80
FF80
FF80
FF80
FF80
FF80
FF80
FF80
7F00
ENDCHAR
STARTCHAR uni01D3
ENCODING 467
SWIDTH 578 0
DWIDTH 9 0
BBX 9 15 0 0
BITMAP
3F00
3F00
3700
1A00
3E00
7F80
FF80
FF80
FF80
FF80
FD80
FF80
FF80
FF80
7F00
ENDCHAR
STARTCHAR uni01D4
ENCODING 468
SWIDTH 578 0
DWIDTH 9 0
BBX 9 15 0 0
BITMAP
3F00
3F00
3700
1A00
3E00
7F80
FF80
FF80
FF80
FF80
FD80
FF80
FF80
FF80
7F00
ENDCHAR
STARTCHAR uni0200
ENCODING 512
SWIDTH 578 0
DWIDTH 9 0
BBX 9 16 0 0
BITMAP
2800
7C00
5600
6E00
3A00
3E00
6180
ED80
ED80
E180
FD80
DD80
FF80
FF80
FF80
7F00
ENDCHAR
STARTCHAR uni0201
ENCODING 513
SWIDTH 578 0
DWIDTH 9 0
BBX 9 16 0 0
BITMAP
2800
7C00
5600
6E00
3A00
3E00
6180
FD80
FD80
E180
DD80
DD80
FF80
FF80
FF80
7F00
ENDCHAR
STARTCHAR uni0202
ENCODING 514
SWIDTH 578 0
DWIDTH 9 0
BBX 9 15 0 0
BITMAP
1E00
3F00
7300
2F00
3E00
6180
ED80
ED80
E180
FD80
DD80
FF80
FF80
FF80
7F00
ENDCHAR
STARTCHAR uni0203
ENCODING 515
SWIDTH 578 0
DWIDTH 9 0
BBX 9 15 0 0
BITMAP
1E00
3F00
7300
2F00
3E00
6180
FD80
FD80
E180
DD80
DD80
FF80
FF80
FF80
7F00
ENDCHAR
STARTCHAR uni0204
ENCODING 516
SWIDTH 578 0
DWIDTH 9 0
BBX 9 16 0 0
BITMAP
2800
7C00
5600
6E00
3A00
3E00
6180
EF80
EF80
E180
EF80
EF80
FF80
FF80
FF80
7F00
ENDCHAR
STARTCHAR uni0205
ENCODING 517
SWIDTH 578 0
DWIDTH 9 0
BBX 9 16 0 0
BITMAP
2800
7C00
5600
6E00
3A00
3E00
6180
DD80
C180
DF80
DF80
C180
FF80
FF80
FF80
7F00
ENDCHAR
STARTCHAR uni0206
ENCODING 518
SWIDTH 578 0
DWIDTH 9 0
BBX 9 15 0 0
BITMAP
1E00
3F00
7300
2F00
3E00
6180
EF80
EF80
E180
EF80
EF80
FF80
FF80
FF80
7F00
ENDCHAR
STARTCHAR uni0207
ENCODING 519
SWIDTH 578 0
DWIDTH 9 0
BBX 9 15 0 0
BITMAP
1E00
3F00
7300
2F00
3E00
6180
DD80
C180
DF80
DF80
C180
FF80
FF80
FF80
7F00
ENDCHAR
STARTCHAR uni0208
ENCODING 520
SWIDTH 578 0
DWIDTH 9 0
BBX 9 16 0 0
BITMAP
2800
7C00
5600
6E00
3A00
3E00
6180
FF80
FF80
FF80
FF80
FF80
FF80
FF80
FF80
7F00
ENDCHAR
STARTCHAR uni0209
ENCODING 521
SWIDTH 578 0
DWIDTH 9 0
BBX 9 16 0 0
BITMAP
2800
7C00
5600
6E00
3A00
3E00
6180
FF80
FF80
FF80
FF80
FF80
FF80
FF80
FF80
7F00
ENDCHAR
STARTCHAR uni020A
ENCODING 522
SWIDTH 578 0
DWIDTH 9 0
BBX 9 15 0 0
BITMAP
1E00
3F00
7300
2F00
3E00
6180
FF80
FF80
FF80
FF80
FF80
FF80
FF80
FF80
7F00
ENDCHAR
STARTCHAR uni020B
ENCODING 523
SWIDTH 578 0
DWIDTH 9 0
BBX 9 15 0 0
BITMAP
1E00
3F00
7300
2F00
3E00
6180
FF80
FF80
FF80
FF80
FF80
FF80
FF80
FF80
7F00
ENDCHAR
STARTCHAR uni020C
ENCODING 524
SWIDTH 578 0
DWIDTH 9 0
BBX 9 16 0 0
BITMAP
2800
7C00
5600
6E00
3A00
3E00
6180
FF80
FF80
FF80
FF80
FF80
FF80
FF80
FF80
7F00
ENDCHAR
STARTCHAR uni020D
ENCODING 525
SWIDTH 578 0
DWIDTH 9 0
BBX 9 16 0 0
BITMAP
2800
7C00
5600
6E00
3A00
3E00
6180
FF80
FF80
FF80
FF80
FF80
FF80
FF80
FF80
7F00
ENDCHAR
STARTCHAR uni020E
ENCODING 526
SWIDTH 578 0
DWIDTH 9 0
BBX 9 15 0 0
BITMAP
1E00
3F00
7300
2F00
3E00
6180
FF80
FF80
FF80
FF80
FF80
FF80
FF80
FF80
7F00
ENDCHAR
STARTCHAR uni020F
ENCODING 527
SWIDTH 578 0
DWIDTH 9 0
BBX 9 15 0 0
BITMAP
1E00
3F00
7300
2F00
3E00
6180
FF80
FF80
FF80
FF80
FF80
FF80
FF80
FF80
7F00
ENDCHAR
STARTCHAR uni0210
ENCODING 528
SWIDTH 578 0
DWIDTH 9 0
BBX 9 16 0 0
BITMAP
2800
7C00
5600
6E00
3A00
3E00
6180
ED80
ED80
E380
ED80
ED80
FF80
FF80
FF80
7F00
ENDCHAR
STARTCHAR uni0211
ENCODING 529
SWIDTH 578 0
DWIDTH 9 0
BBX 9 16 0 0
BITMAP
2800
7C00
5600
6E00
3A00
3E00
6180
ED80
ED80
E380
ED80
ED80
FF80
FF80
FF80
7F00
ENDCHAR
STARTCHAR uni0212
ENCODING 530
SWIDTH 578 0
DWIDTH 9 0
BBX 9 15 0 0
BITMAP
1E00
3F00
7300
2F00
3E00
6180
ED80
ED80
E380
ED80
ED80
FF80
FF80
FF80
7F00
ENDCHAR
STARTCHAR uni0213
ENCODING 531
SWIDTH 578 0
DWIDTH 9 0
BBX 9 15 0 0
BITMAP
1E00
3F00
7300
2F00
3E00
6180
ED80
ED80
E380
ED80
ED80
FF80
FF80
FF80
7F00
ENDCHAR
STARTCHAR uni0214
ENCODING 532
SWIDTH 578 0
DWIDTH 9 0
BBX 9 16 0 0
BITMAP
2800
7C00
5600
6E00
3A00
3E00
7F80
FF80
FF80
FF80
FF80
FD80
FF80
FF80
FF80
7F00
ENDCHAR
STARTCHAR uni0215
ENCODING 533
SWIDTH 578 0
DWIDTH 9 0
BBX 9 16 0 0
BITMAP
2800
7C00
5600
6E00
3A00
3E00
7F80
FF80
FF80
FF80
FF80
FD80
FF80
FF80
FF80
7F00
ENDCHAR
STARTCHAR uni0216
ENCODING 534
SWIDTH 578 0
DWIDTH 9 0
BBX 9 15 0 0
BITMAP
1E00
3F00
7300
2F00
3E00
7F80
FF80
FF80
FF80
FF80
FD80
FF80
FF80
FF80
7F00
ENDCHAR
STARTCHAR uni0217
ENCODING 535
SWIDTH 578 0
DWIDTH 9 0
BBX 9 15 0 0
BITMAP
1E00
3F00
7300
2F00
3E00
7F80
FF80
FF80
FF80
FF80
FD80
FF80
FF80
FF80
7F00
ENDCHAR
STARTCHAR uni0218
ENCODING 536
SWIDTH 578 0
DWIDTH 9 0
BBX 9 11 0 0
BITMAP
3E00
6180
EF80
EF80
E180
FD80
FD80
FF80
F380
FF80
7F00
ENDCHAR
STARTCHAR uni0219
ENCODING 537
SWIDTH 578 0
DWIDTH 9 0
BBX 9 11 0 0
BITMAP
3E00
6180
EF80
EF80
E180
FD80
FD80
FF80
F380
FF80
7F00
ENDCHAR
STARTCHAR uni021A
ENCODING 538
SWIDTH 578 0
DWIDTH 9 0
BBX 9 11 0 0
BITMAP
3E00
6180
FF80
FF80
FF80
FF80
FF80
FF80
FB80
FF80
7F00
ENDCHAR
STARTCHAR uni021B
ENCODING 539
SWIDTH 578 0
DWIDTH 9 0
BBX 9 11 0 0
BITMAP
3E00
6180
FF80
FF80
FF80
FF80
FF80
FF80
FB80
FF80
7F00
ENDCHAR
STARTCHAR circumflex
ENCODING 710
SWIDTH 355 0
DWIDTH 6 0
BBX 6 6 0 0
BITMAP
30
78
58
EC
FC
F8
ENDCHAR
STARTCHAR caron
ENCODING 711
SWIDTH 355 0
DWIDTH 6 0
BBX 6 5 0 0
BITMAP
FC
EC
EC
D8
78
ENDCHAR
STARTCHAR breve
ENCODING 728
SWIDTH 428 0
DWIDTH 7 0
BBX 7 5 0 0
BITMAP
38
FC
FE
C6
7C
ENDCHAR
STARTCHAR dotaccent
ENCODING 729
SWIDTH 428 0
DWIDTH 7 0
BBX 7 5 0 0
BITMAP
38
FC
FE
EE
FC
ENDCHAR
STARTCHAR ring
ENCODING 730
SWIDTH 368 0
DWIDTH 6 0
BBX 6 5 0 0
BITMAP
78
DC
FC
CC
FC
ENDCHAR
STARTCHAR ogonek
ENCODING 731
SWIDTH 101 0
DWIDTH 2 0
BBX 2 2 0 -2
BITMAP
C0
C0
ENDCHAR
STARTCHAR tilde
ENCODING 732
SWIDTH 428 0
DWIDTH 7 0
BBX 7 5 0 0
BITMAP
7C
FE
FE
C6
7C
ENDCHAR
STARTCHAR hungarumlaut
ENCODING 733
SWIDTH 419 0
DWIDTH 7 0
BBX 7 6 0 0
BITMAP
14
7C
76
DC
EC
F8
ENDCHAR
STARTCHAR uni030F
ENCODING 783
SWIDTH 419 0
DWIDTH 7 0
BBX 7 6 0 0
BITMAP
50
78
EC
D4
7E
3E
ENDCHAR
STARTCHAR mu
ENCODING 956
SWIDTH 578 0
DWIDTH 9 0
BBX 9 11 0 0
BITMAP
3E00
7F80
FF80
FF80
FF80
FF80
FD80
FF80
FF80
FF80
7F00
ENDCHAR
STARTCHAR pi
ENCODING 960
SWIDTH 578 0
DWIDTH 9 0
BBX 9 11 0 0
BITMAP
3E00
6D80
D280
AF80
A380
AF80
EE80
DD80
FF80
FF80
7F00
ENDCHAR
STARTCHAR uni1E60
ENCODING 7776
SWIDTH 578 0
DWIDTH 9 0
BBX 9 15 0 0
BITMAP
0C00
3F00
3F80
3B80
3F00
6180
EF80
EF80
E180
FD80
FD80
FF80
FF80
FF80
7F00
ENDCHAR
STARTCHAR uni1E8E
ENCODING 7822
SWIDTH 578 0
DWIDTH 9 0
BBX 9 15 0 0
BITMAP
0C00
3F00
3F00
3700
3F00
6D80
ED80
FB80
FB80
FF80
FF80
FF80
FF80
FF80
7F00
ENDCHAR
STARTCHAR uni1E8F
ENCODING 7823
SWIDTH 578 0
DWIDTH 9 0
BBX 9 15 0 0
BITMAP
0C00
3F00
3F00
3700
3F00
6D80
ED80
FB80
FB80
FF80
FF80
FF80
FF80
FF80
7F00
ENDCHAR
STARTCHAR uni1EBC
ENCODING 7868
SWIDTH 578 0
DWIDTH 9 0
BBX 9 15 0 0
BITMAP
1E00
3F00
3F80
2100
3F00
6180
EF80
EF80
E180
EF80
EF80
FF80
FF80
FF80
7F00
ENDCHAR
STARTCHAR uni1EF8
ENCODING 7928
SWIDTH 578 0
DWIDTH 9 0
BBX 9 15 0 0
BITMAP
1E00
3F00
3F00
2100
3F00
6D80
ED80
FB80
FB80
FF80
FF80
FF80
FF80
FF80
7F00
ENDCHAR
STARTCHAR uni1EF9
ENCODING 7929
SWIDTH 578 0
DWIDTH 9 0
BBX 9 15 0 0
BITMAP
1E00
3F00
3F00
2100
3F00
6D80
ED80
FB80
FB80
FF80
FF80
FF80
FF80
FF80
7F00
ENDCHAR
STARTCHAR endash
ENCODING 8211
SWIDTH 428 0
DWIDTH 7 0
BBX 7 11 0 0
BITMAP
38
7C
FE
C6
FE
FE
FE
FE
FE
FC
78
ENDCHAR
STARTCHAR emdash
ENCODING 8212
SWIDTH 428 0
DWIDTH 7 0
BBX 7 11 0 0
BITMAP
38
7C
FE
00
FE
FE
FE
FE
FE
FC
78
ENDCHAR
STARTCHAR quoteleft
ENCODING 8216
SWIDTH 428 0
DWIDTH 7 0
BBX 7 11 0 0
BITMAP
38
6C
EE
FE
FE
FE
FE
FE
FE
FC
78
ENDCHAR
STARTCHAR quoteright
ENCODING 8217
SWIDTH 428 0
DWIDTH 7 0
BBX 7 11 0 0
BITMAP
38
6C
EE
FE
FE
FE
FE
FE
FE
FC
78
ENDCHAR
STARTCHAR quotesinglbase
ENCODING 8218
SWIDTH 428 0
DWIDTH 7 0
BBX 7 11 0 0
BITMAP
38
7C
FE
FE
FE
FE
EE
EE
FE
FC
78
ENDCHAR
STARTCHAR quotedblleft
ENCODING 8220
SWIDTH 428 0
DWIDTH 7 0
BBX 7 11 0 0
BITMAP
38
5C
D6
FE
FE
FE
FE
FE
FE
FC
78
ENDCHAR
STARTCHAR quotedblright
ENCODING 8221
SWIDTH 428 0
DWIDTH 7 0
BBX 7 11 0 0
BITMAP
38
54
F6
FE
FE
FE
FE
FE
FE
FC
78
ENDCHAR
STARTCHAR quotedblbase
ENCODING 8222
SWIDTH 428 0
DWIDTH 7 0
BBX 7 11 0 0
BITMAP
38
7C
FE
FE
FE
FE
D6
F6
FE
FC
78
ENDCHAR
STARTCHAR dagger
ENCODING 8224
SWIDTH 578 0
DWIDTH 9 0
BBX 9 11 0 0
BITMAP
3E00
7F80
F180
FF80
FF80
FF80
FF80
FF80
FF80
FF80
7F00
ENDCHAR
STARTCHAR daggerdbl
ENCODING 8225
SWIDTH 578 0
DWIDTH 9 0
BBX 9 11 0 0
BITMAP
3E00
7F80
F180
FF80
FF80
FF80
FF80
FF80
FF80
FF80
7F00
ENDCHAR
STARTCHAR bullet
ENCODING 8226
SWIDTH 578 0
DWIDTH 9 0
BBX 9 11 0 0
BITMAP
3E00
7F80
E180
E180
E180
E180
E180
FF80
FF80
FF80
7F00
ENDCHAR
STARTCHAR ellipsis
ENCODING 8230
SWIDTH 578 0
DWIDTH 9 0
BBX 9 11 0 0
BITMAP
3E00
7F80
FF80
FF80
FF80
FF80
D580
FF80
FF80
FF80
7F00
ENDCHAR
STARTCHAR perthousand
ENCODING 8240
SWIDTH 640 0
DWIDTH 10 0
BBX 10 11 0 0
BITMAP
3F00
D7C0
D7C0
9FC0
EFC0
EDC0
F140
FFC0
FFC0
FFC0
7F80
ENDCHAR
STARTCHAR guilsinglleft
ENCODING 8249
SWIDTH 578 0
DWIDTH 9 0
BBX 9 11 0 0
BITMAP
3E00
7F80
FB80
F780
FF80
F780
FB80
FF80
FF80
FF80
7F00
ENDCHAR
STARTCHAR guilsinglright
ENCODING 8250
SWIDTH 578 0
DWIDTH 9 0
BBX 9 11 0 0
BITMAP
3E00
7F80
F780
FF80
FB80
FB80
F780
FF80
FF80
FF80
7F00
ENDCHAR
STARTCHAR fraction
ENCODING 8260
SWIDTH 428 0
DWIDTH 7 0
BBX 7 11 0 0
BITMAP
38
6C
EE
EE
EE
EE
FE
FE
FE
FC
78
ENDCHAR
STARTCHAR Euro
ENCODING 8364
SWIDTH 578 0
DWIDTH 9 0
BBX 9 11 0 0
BITMAP
3E00
6180
DF80
C780
DF80
DF80
DF80
FF80
FF80
FF80
7F00
ENDCHAR
STARTCHAR trademark
ENCODING 8482
SWIDTH 578 0
DWIDTH 9 0
BBX 9 11 0 0
BITMAP
3E00
7F80
FF80
FF80
F580
F580
FF80
FF80
FF80
FF80
7F00
ENDCHAR
STARTCHAR product
ENCODING 8719
SWIDTH 578 0
DWIDTH 9 0
BBX 9 11 0 0
BITMAP
3E00
6980
DE80
BD80
BD80
BF80
FE80
DD80
FF80
FF80
7F00
ENDCHAR
STARTCHAR minus
ENCODING 8722
SWIDTH 428 0
DWIDTH 7 0
BBX 7 11 0 0
BITMAP
38
7C
FE
C6
FE
FE
FE
FE
FE
FC
78
ENDCHAR
STARTCHAR notequal
ENCODING 8800
SWIDTH 578 0
DWIDTH 9 0
BBX 9 11 0 0
BITMAP
3E00
7F80
FB80
F780
C180
FF80
FF80
FF80
FF80
FF80
7F00
ENDCHAR
STARTCHAR uni2706
ENCODING 9990
SWIDTH 578 0
DWIDTH 9 0
BBX 9 11 0 0
BITMAP
3E00
7B80
FF80
FB80
EF80
EF80
E780
F580
FF80
FF80
7F00
ENDCHAR
STARTCHAR uni2708
ENCODING 9992
SWIDTH 578 0
DWIDTH 9 0
BBX 9 11 0 0
BITMAP
7F00
8C80
8880
AA80
9C80
8880
8880
8880
8880
8C80
7F00
ENDCHAR
STARTCHAR uniF6D6
ENCODING 63190
SWIDTH 419 0
DWIDTH 7 0
BBX 7 6 0 0
BITMAP
50
78
EC
D4
7E
3E
ENDCHAR
STARTCHAR uFFFF2
ENCODING 1048562
SWIDTH 578 0
DWIDTH 9 0
BBX 9 11 0 0
BITMAP
7F00
8880
8880
8880
9E80
A980
8880
9480
8880
8C80
7F00
ENDCHAR
STARTCHAR uFFFF3
ENCODING 1048563
SWIDTH 578 0
DWIDTH 9 0
BBX 9 11 0 0
BITMAP
7F00
8880
8480
9A80
8C80
8C80
9A80
8480
8080
8080
7F00
ENDCHAR
STARTCHAR uFFFF4
ENCODING 1048564
SWIDTH 578 0
DWIDTH 9 0
BBX 9 11 0 0
BITMAP
3E00
7F80
FF80
FD80
DF80
DF80
E980
FF80
FF80
FF80
7F00
ENDCHAR
STARTCHAR uFFFF5
ENCODING 1048565
SWIDTH 578 0
DWIDTH 9 0
BBX 9 11 0 0
BITMAP
3E00
7380
FF80
DD80
F380
F780
F780
FF80
F780
F380
7F00
ENDCHAR
STARTCHAR uFFFF6
ENCODING 1048566
SWIDTH 578 0
DWIDTH 9 0
BBX 9 11 0 0
BITMAP
3E00
7F80
F780
F780
E380
D780
F780
FF80
F780
F380
7F00
ENDCHAR
STARTCHAR uFFFF8
ENCODING 1048568
SWIDTH 578 0
DWIDTH 9 0
BBX 9 11 0 0
BITMAP
3E00
7F80
EF80
FB80
F580
C180
E180
E380
FF80
F780
7F00
ENDCHAR
STARTCHAR uFFFF9
ENCODING 1048569
SWIDTH 578 0
DWIDTH 9 0
BBX 9 11 0 0
BITMAP
7F00
8080
9A80
AA80
A980
A280
9E80
8080
8080
8080
7F00
ENDCHAR
STARTCHAR uFFFFB
ENCODING 1048571
SWIDTH 578 0
DWIDTH 9 0
BBX 9 11 0 0
BITMAP
3E00
7780
F780
EB80
F780
EB80
F780
F780
FF80
FF80
7F00
ENDCHAR
STARTCHAR uFFFFC
ENCODING 1048572
SWIDTH 578 0
DWIDTH 9 0
BBX 9 11 0 0
BITMAP
3E00
6380
DE80
FD80
EB80
F780
FF80
FF80
FF80
FF80
7F00
ENDCHAR
STARTCHAR uFFFFD
ENCODING 1048573
SWIDTH 578 0
DWIDTH 9 0
BBX 9 11 0 0
BITMAP
3E00
7780
E180
C180
F580
EB80
F780
FB80
FF80
F780
7F00
ENDCHAR
STARTCHAR uFFFFE
ENCODING 1048574
SWIDTH 578 0
DWIDTH 9 0
BBX 9 11 0 0
BITMAP
3E00
7F80
FA80
FA80
FA80
FA80
FF80
FF80
FF80
FF80
7F00
ENDCHAR
STARTCHAR uFFFFF
ENCODING 1048575
SWIDTH 578 0
DWIDTH 9 0
BBX 9 11 0 0
BITMAP
7F00
8880
9E80
BE80
AA80
9C80
9C80
8C80
8880
8880
7F00
ENDCHAR
STARTCHAR .notdef
ENCODING -1
SWIDTH 1000 0
DWIDTH 16 0
BBX 1 1 0 0
BITMAP
00
ENDCHAR
STARTCHAR glyph1
ENCODING -1
SWIDTH 0 0
DWIDTH 0 0
BBX 1 1 0 0
BITMAP
00
ENDCHAR
ENDFONT
